<svg width="14" height="14" viewBox="0 0 14 14" fill="none" xmlns="http://www.w3.org/2000/svg">
<path fill-rule="evenodd" clip-rule="evenodd" d="M4.66266 5.01035C4.50656 5.01035 4.35685 4.94834 4.24647 4.83796C4.13609 4.72758 4.07407 4.57787 4.07407 4.42176V3.83553C3.76187 3.83553 3.46245 3.95955 3.24169 4.18032C3.02092 4.40108 2.8969 4.7005 2.8969 5.01271V5.79749H10.7447V5.01271C10.7447 4.7005 10.6207 4.40108 10.3999 4.18032C10.1792 3.95955 9.87976 3.83553 9.56755 3.83553V4.42412C9.56755 4.58022 9.50554 4.72993 9.39516 4.84031C9.28478 4.95069 9.13507 5.01271 8.97897 5.01271C8.82286 5.01271 8.67315 4.95069 8.56277 4.84031C8.45239 4.72993 8.39038 4.58022 8.39038 4.42412V3.83553H5.25125V4.42176C5.25125 4.57787 5.18924 4.72758 5.07886 4.83796C4.96847 4.94834 4.81876 5.01035 4.66266 5.01035ZM8.39038 2.65836H5.25125V2.0682C5.25125 1.9121 5.18924 1.76239 5.07886 1.65201C4.96847 1.54163 4.81876 1.47961 4.66266 1.47961C4.50656 1.47961 4.35685 1.54163 4.24647 1.65201C4.13609 1.76239 4.07407 1.9121 4.07407 2.0682V2.65836C3.44966 2.65836 2.85083 2.9064 2.4093 3.34793C1.96777 3.78946 1.71973 4.38829 1.71973 5.01271V9.7214C1.71973 10.3458 1.96777 10.9447 2.4093 11.3862C2.85083 11.8277 3.44966 12.0757 4.07407 12.0757H9.56755C10.192 12.0757 10.7908 11.8277 11.2323 11.3862C11.6739 10.9447 11.9219 10.3458 11.9219 9.7214V5.01271C11.9219 4.38829 11.6739 3.78946 11.2323 3.34793C10.7908 2.9064 10.192 2.65836 9.56755 2.65836V2.06977C9.56755 1.91367 9.50554 1.76396 9.39516 1.65358C9.28478 1.5432 9.13507 1.48118 8.97897 1.48118C8.82286 1.48118 8.67315 1.5432 8.56277 1.65358C8.45239 1.76396 8.39038 1.91367 8.39038 2.06977V2.65836ZM2.8969 6.97466V9.7214C2.8969 10.0336 3.02092 10.333 3.24169 10.5538C3.46245 10.7746 3.76187 10.8986 4.07407 10.8986H9.56755C9.87976 10.8986 10.1792 10.7746 10.3999 10.5538C10.6207 10.333 10.7447 10.0336 10.7447 9.7214V6.97466H2.8969Z" fill="black"/>
</svg>
