<svg width="40" height="40" viewBox="0 0 40 40" fill="none" xmlns="http://www.w3.org/2000/svg">
<path d="M33.4297 16.205C35.0097 15.315 35.8013 14.87 36.233 14.1517C36.6663 13.435 36.6663 12.57 36.6663 10.84V9.69C36.6663 7.48 36.6663 6.37333 35.933 5.68667C35.203 5 34.0247 5 31.6663 5H8.33301C5.97634 5 4.79801 5 4.06634 5.68667C3.33467 6.37333 3.33301 7.48 3.33301 9.69167V10.8417C3.33301 12.57 3.33301 13.435 3.76634 14.1517C4.19967 14.8683 4.98801 15.315 6.56967 16.205L11.4247 18.9383C12.4847 19.535 13.0163 19.8333 13.3963 20.1633C14.1863 20.8483 14.673 21.655 14.893 22.6467C14.9997 23.12 14.9997 23.6767 14.9997 24.7883V29.2383C14.9997 30.7533 14.9997 31.5117 15.4197 32.1017C15.8397 32.6933 16.5863 32.985 18.0763 33.5683C21.208 34.7917 22.773 35.4033 23.8863 34.7067C24.9997 34.01 24.9997 32.42 24.9997 29.2367V24.7867C24.9997 23.6767 24.9997 23.12 25.1063 22.645C25.3156 21.6736 25.8429 20.7997 26.6047 20.1617" stroke="white" stroke-width="1.5" stroke-linecap="round"/>
</svg>
