<svg width="25" height="24" viewBox="0 0 25 24" fill="none" xmlns="http://www.w3.org/2000/svg">
<g clip-path="url(#clip0_2_1029)">
<path d="M12.8021 12.5366C11.8815 12.5366 10.9987 12.9023 10.3477 13.5533C9.69676 14.2042 9.33105 15.0871 9.33105 16.0077C9.33105 16.9283 9.69676 17.8112 10.3477 18.4621C10.9987 19.1131 11.8815 19.4788 12.8021 19.4788C13.7227 19.4788 14.6056 19.1131 15.2565 18.4621C15.9075 17.8112 16.2732 16.9283 16.2732 16.0077C16.2732 15.0871 15.9075 14.2042 15.2565 13.5533C14.6056 12.9023 13.7227 12.5366 12.8021 12.5366ZM11.3145 16.0077C11.3145 15.6132 11.4713 15.2348 11.7502 14.9558C12.0292 14.6768 12.4076 14.5201 12.8021 14.5201C13.1967 14.5201 13.575 14.6768 13.854 14.9558C14.133 15.2348 14.2897 15.6132 14.2897 16.0077C14.2897 16.4022 14.133 16.7806 13.854 17.0596C13.575 17.3386 13.1967 17.4953 12.8021 17.4953C12.4076 17.4953 12.0292 17.3386 11.7502 17.0596C11.4713 16.7806 11.3145 16.4022 11.3145 16.0077Z" fill="white"/>
<path d="M18.2822 5.21362L15.1295 0.793457L3.5371 10.0543L2.89446 10.0473V10.0573H2.38867V21.9581H23.2151V10.0573H22.2611L20.3629 4.50453L18.2822 5.21362ZM20.1655 10.0573H10.2204L17.6277 7.5323L19.1371 7.04932L20.1655 10.0573ZM16.3226 5.88205L8.67628 8.48833L14.7318 3.65065L16.3226 5.88205ZM4.37214 18.1587V13.8546C4.79083 13.7068 5.17113 13.4672 5.48517 13.1534C5.79921 12.8395 6.03902 12.4593 6.18702 12.0407H19.4168C19.5646 12.4595 19.8044 12.8399 20.1184 13.1539C20.4325 13.468 20.8129 13.7077 21.2316 13.8556V18.1597C20.8129 18.3076 20.4325 18.5474 20.1184 18.8614C19.8044 19.1755 19.5646 19.5558 19.4168 19.9746H6.189C6.04042 19.5558 5.80021 19.1754 5.48588 18.8613C5.17156 18.5471 4.79105 18.3071 4.37214 18.1587Z" fill="white"/>
</g>
<defs>
<clipPath id="clip0_2_1029">
<rect width="23.8017" height="23.8017" fill="white" transform="translate(0.901367 0.140137)"/>
</clipPath>
</defs>
</svg>
