<svg width="40" height="40" viewBox="0 0 40 40" fill="none" xmlns="http://www.w3.org/2000/svg">
<path d="M19.1663 36.6667C10.433 36.6667 3.33301 29.5833 3.33301 20.8333C3.33301 16.6341 5.00116 12.6068 7.97048 9.63748C10.9398 6.66815 14.9671 5 19.1663 5C23.3656 5 27.3929 6.66815 30.3622 9.63748C33.3315 12.6068 34.9997 16.6341 34.9997 20.8333C34.9997 25.0326 33.3315 29.0599 30.3622 32.0292C27.3929 34.9985 23.3656 36.6667 19.1663 36.6667ZM19.1663 35C21.0267 35 22.8689 34.6336 24.5877 33.9216C26.3065 33.2097 27.8682 32.1662 29.1837 30.8507C30.4992 29.5352 31.5427 27.9735 32.2546 26.2547C32.9666 24.5359 33.333 22.6937 33.333 20.8333C33.333 17.2167 31.983 13.9167 29.7663 11.4167L9.74967 31.4167C12.3409 33.7287 15.6935 35.0045 19.1663 35ZM19.1663 6.66667C15.4091 6.66667 11.8058 8.15922 9.149 10.816C6.49223 13.4728 4.99967 17.0761 4.99967 20.8333C4.99967 24.45 6.34967 27.7333 8.58301 30.2333L28.583 10.2333C25.9868 7.93138 22.6361 6.66225 19.1663 6.66667Z" fill="white"/>
<path d="M13.6403 13.64C17.1503 10.13 22.8503 10.13 26.3703 13.64C29.8803 17.15 29.8803 22.85 26.3703 26.37C22.8603 29.88 17.1603 29.88 13.6403 26.37C10.1303 22.86 10.1303 17.16 13.6403 13.64Z" stroke="black" stroke-width="2" stroke-linecap="round" stroke-linejoin="round"/>
<path d="M14 14L26 26" stroke="black" stroke-width="2" stroke-linecap="round" stroke-linejoin="round"/>
</svg>
