<svg width="24" height="24" viewBox="0 0 24 24" fill="none" xmlns="http://www.w3.org/2000/svg">
<path d="M9.19708 14.8479C8.8287 14.4795 8.53649 14.0422 8.33713 13.5609C8.13777 13.0795 8.03516 12.5637 8.03516 12.0427C8.03516 11.5218 8.13777 11.0059 8.33713 10.5246C8.53649 10.0433 8.8287 9.60598 9.19708 9.2376C9.56545 8.86923 10.0028 8.57702 10.4841 8.37766C10.9654 8.17829 11.4812 8.07568 12.0022 8.07568C12.5232 8.07568 13.039 8.17829 13.5203 8.37766C14.0016 8.57702 14.439 8.86923 14.8073 9.2376" stroke="white" stroke-width="2.23141" stroke-linecap="round" stroke-linejoin="round"/>
<path d="M11.3007 12.7425L11.4732 12.9875C12.4542 14.3139 13.8484 15.2765 15.4363 15.7239C17.0243 16.1713 18.7159 16.0781 20.2451 15.4589C19.6823 16.8131 18.7946 18.0077 17.6603 18.9373C16.526 19.8668 15.1802 20.5025 13.7418 20.7882C12.3034 21.0739 10.8167 21.0008 9.41333 20.5753C8.00991 20.1498 6.73296 19.3851 5.69536 18.3488M3.0752 12.0413H4.06693M12.0008 3.11572V4.10746M5.65371 5.69424L6.34792 6.38845M3.0752 20.967L20.9264 3.11572" stroke="white" stroke-width="2.23141" stroke-linecap="round" stroke-linejoin="round"/>
</svg>
