<svg width="41" height="40" viewBox="0 0 41 40" fill="none" xmlns="http://www.w3.org/2000/svg">
<path d="M5.5 17.3617C5.5 12.0317 5.5 9.36668 6.13 8.47001C6.75833 7.57501 9.26333 6.71668 14.275 5.00168L15.23 4.67501C17.8417 3.78001 19.1467 3.33334 20.5 3.33334C21.8533 3.33334 23.1583 3.78001 25.77 4.67501L26.725 5.00168C31.7367 6.71668 34.2417 7.57501 34.87 8.47001C35.5 9.36668 35.5 12.0333 35.5 17.3617V19.985C35.5 29.3817 28.435 33.9433 24.0017 35.8783C22.8 36.4033 22.2 36.6667 20.5 36.6667C18.8 36.6667 18.2 36.4033 16.9983 35.8783C12.565 33.9417 5.5 29.3833 5.5 19.985V17.3617Z" stroke="white" stroke-width="1.5"/>
<path d="M5.5 18.3333L20.5 13.3333L35.5 18.3333M20.5 3.33334V35.8333" stroke="white" stroke-width="1.5"/>
</svg>
