<svg width="40" height="41" viewBox="0 0 40 41" fill="none" xmlns="http://www.w3.org/2000/svg">
<g opacity="0.9">
<path d="M23.5325 13.7001C23.0753 14.1573 22.6597 14.6561 22.2441 15.1548C22.1194 14.947 21.9947 14.7392 21.8284 14.573C21.7869 14.5314 21.7869 14.5314 21.7453 14.5314C21.8284 13.1183 22.2441 11.7051 22.8675 10.4583C23.4909 9.25293 24.3222 8.21386 25.3197 7.34104C25.6522 7.0501 25.6938 6.55135 25.4028 6.21885C25.1119 5.88635 24.6131 5.84478 24.2806 6.13572C23.1169 7.13323 22.1609 8.33855 21.4544 9.71012C20.7894 10.957 20.3737 12.3701 20.2075 13.7833C19.9581 13.7417 19.7087 13.7417 19.4594 13.7833C19.2931 12.3701 18.8775 10.957 18.2125 9.71012C17.5059 8.33855 16.55 7.13323 15.3862 6.13572C15.0537 5.84478 14.555 5.88635 14.264 6.21885C13.9731 6.55135 14.0146 7.0501 14.3471 7.34104C15.3862 8.21386 16.1759 9.25293 16.7993 10.4583C17.4643 11.7051 17.8384 13.1183 17.9215 14.5314C17.88 14.573 17.88 14.573 17.8384 14.573C17.7553 14.6561 17.6722 14.7808 17.589 14.9055C17.2565 14.4898 16.8825 14.1158 16.5084 13.7417C12.3521 9.58543 7.15678 8.33855 4.62145 10.8323C3.7902 11.6636 3.33301 12.8273 3.33301 14.2405C3.33301 16.9005 4.91239 20.1008 7.53085 22.7193C7.82179 23.0102 8.07116 23.2596 8.3621 23.509C6.86584 24.7558 5.99302 26.5846 5.99302 28.5381C5.99302 32.154 8.94398 35.105 12.5599 35.105C14.5134 35.105 16.3006 34.2737 17.5059 32.9021C17.5475 34.149 18.545 35.105 19.7919 35.105C21.0387 35.105 22.0778 34.1075 22.0778 32.8606V32.445C23.3663 34.0243 25.3197 35.0218 27.4394 35.0218C31.0554 35.0218 34.0063 32.0709 34.0063 28.4549C34.0063 26.5015 33.1335 24.6312 31.6372 23.4258C31.9282 23.1765 32.2191 22.9271 32.4685 22.6361C35.087 20.0177 36.6663 16.8589 36.6663 14.1989C36.6663 12.7858 36.2091 11.622 35.3779 10.7908C32.8841 8.25542 27.6472 9.54387 23.5325 13.7001ZM12.6431 33.4425C9.89992 33.4425 7.65554 31.1981 7.65554 28.4549C7.65554 26.6677 8.61148 25.0468 10.1493 24.1324C10.2324 24.0908 10.274 24.0077 10.3571 23.9661C10.3571 23.9661 10.3571 23.9661 10.3987 23.9246C10.4818 23.8415 10.5234 23.7583 10.5234 23.6336C10.5234 23.5921 10.5234 23.5505 10.5234 23.509C10.5234 23.4674 10.5234 23.3843 10.5234 23.3427C10.5234 23.2596 10.4818 23.1349 10.4402 23.0518C10.3987 23.0102 10.3571 22.9686 10.3156 22.9271C10.274 22.8855 10.274 22.844 10.2324 22.8024C9.73367 22.4283 9.23492 21.9711 8.73617 21.4724C6.45021 19.1864 4.99552 16.3602 4.99552 14.1158C4.99552 13.1183 5.28646 12.3701 5.82677 11.8298C7.65553 10.0011 12.0612 11.3311 15.4693 14.7392C16.0928 15.3627 16.6747 16.0692 17.1734 16.7342L17.4228 26.8755L17.5059 29.494C16.924 31.8631 14.9706 33.4425 12.6431 33.4425ZM20.5816 32.7359C20.5816 33.11 20.2491 33.4425 19.875 33.4425C19.5009 33.4425 19.1684 33.1515 19.1684 32.7359L19.0853 29.7018L18.7528 16.4849C18.7528 16.1523 18.8775 15.8614 19.0853 15.6536C19.2931 15.4458 19.584 15.3211 19.9165 15.3211C20.2491 15.3211 20.54 15.4458 20.7478 15.6536C20.9556 15.8614 21.0803 16.1939 21.0803 16.4849L20.5816 32.7359ZM31.3463 21.5139C30.8891 21.9711 30.3904 22.4283 29.85 22.844C29.8085 22.8855 29.7669 22.9271 29.7669 22.9686C29.7254 23.0102 29.6838 23.0518 29.6422 23.0933C29.6007 23.1765 29.5591 23.3011 29.5591 23.3843C29.5591 23.4258 29.5591 23.509 29.5591 23.5505C29.5591 23.5921 29.5591 23.6336 29.5591 23.6752C29.6007 23.7583 29.6422 23.883 29.6838 23.9661C29.6838 23.9661 29.6838 23.9661 29.7254 24.0077C29.7669 24.0908 29.85 24.1324 29.9332 24.174C31.471 25.0468 32.4269 26.7093 32.4269 28.4965C32.4269 31.2396 30.1826 33.484 27.4394 33.484C25.1119 33.484 23.1169 31.9046 22.5766 29.6187C22.535 29.4109 22.4103 29.2031 22.2441 29.0784L22.5766 17.233C22.6597 17.1914 22.7428 17.1083 22.8259 17.0252C23.3247 16.277 23.9481 15.5289 24.6547 14.8639C28.0628 11.4558 32.4685 10.1257 34.2973 11.9545C34.8376 12.4948 35.1285 13.2845 35.1285 14.2405C35.087 16.4017 33.6738 19.228 31.3463 21.5139Z" fill="white"/>
</g>
</svg>
