<svg width="32" height="32" viewBox="0 0 32 32" fill="none" xmlns="http://www.w3.org/2000/svg">
<g id="gravity-ui:calendar">
<path id="Vector" fill-rule="evenodd" clip-rule="evenodd" d="M10.5 10.9941C10.1022 10.9941 9.72064 10.8361 9.43934 10.5548C9.15804 10.2734 9 9.89192 9 9.49409V8.00009C8.20435 8.00009 7.44129 8.31616 6.87868 8.87877C6.31607 9.44138 6 10.2044 6 11.0001V13.0001H26V11.0001C26 10.2044 25.6839 9.44138 25.1213 8.87877C24.5587 8.31616 23.7957 8.00009 23 8.00009V9.50009C23 9.89792 22.842 10.2794 22.5607 10.5608C22.2794 10.8421 21.8978 11.0001 21.5 11.0001C21.1022 11.0001 20.7206 10.8421 20.4393 10.5608C20.158 10.2794 20 9.89792 20 9.50009V8.00009H12V9.49409C12 9.89192 11.842 10.2734 11.5607 10.5548C11.2794 10.8361 10.8978 10.9941 10.5 10.9941ZM20 5.00009H12V3.49609C12 3.09827 11.842 2.71674 11.5607 2.43543C11.2794 2.15413 10.8978 1.99609 10.5 1.99609C10.1022 1.99609 9.72064 2.15413 9.43934 2.43543C9.15804 2.71674 9 3.09827 9 3.49609V5.00009C7.4087 5.00009 5.88258 5.63223 4.75736 6.75745C3.63214 7.88267 3 9.40879 3 11.0001V23.0001C3 24.5914 3.63214 26.1175 4.75736 27.2427C5.88258 28.368 7.4087 29.0001 9 29.0001H23C24.5913 29.0001 26.1174 28.368 27.2426 27.2427C28.3679 26.1175 29 24.5914 29 23.0001V11.0001C29 9.40879 28.3679 7.88267 27.2426 6.75745C26.1174 5.63223 24.5913 5.00009 23 5.00009V3.50009C23 3.10227 22.842 2.72074 22.5607 2.43943C22.2794 2.15813 21.8978 2.00009 21.5 2.00009C21.1022 2.00009 20.7206 2.15813 20.4393 2.43943C20.158 2.72074 20 3.10227 20 3.50009V5.00009ZM6 16.0001V23.0001C6 23.7957 6.31607 24.5588 6.87868 25.1214C7.44129 25.684 8.20435 26.0001 9 26.0001H23C23.7957 26.0001 24.5587 25.684 25.1213 25.1214C25.6839 24.5588 26 23.7957 26 23.0001V16.0001H6Z" fill="white"/>
</g>
</svg>
