<svg width="169" height="608" viewBox="0 0 169 608" fill="none" xmlns="http://www.w3.org/2000/svg">
<g clip-path="url(#clip0_1_632)">
<path d="M119.65 1.5387L113.42 93.7737L11.26 93.525L7.23999 92.9343L12.05 4.60594L119.65 1.5387Z" fill="white"/>
<path d="M114.39 94.8306L11.27 94.6648L6.15997 93.9187L11.08 3.63186L120.77 0.502441L114.39 94.8306ZM8.30997 92.0017L11.41 92.4577L112.47 92.6856L118.56 2.63708L13.01 5.64215L8.30997 92.0017Z" fill="#263238"/>
<path d="M157.61 487.024C169.66 454.393 180.14 404.374 170.67 358.977L0 342.086C0 342.086 1.93 353.816 2.19 359.225C2.45 364.634 6.32 371.163 6.32 371.163L11.92 383.245L12.31 395.587C12.31 395.587 16.36 409.037 17.57 411.472C18.78 413.907 21.97 420.363 21.97 420.363L28.89 442.559C28.89 442.559 34.17 449.978 33.76 454.569L33.02 462.962L34.98 490.837L27.21 532.773L31.76 548.669L37.16 565.674L33.03 595.983C103.08 579.082 142.78 527.229 157.62 487.034L157.61 487.024Z" fill="#B0B0B0"/>
<path d="M6.31001 371.163L11.91 383.245L12.3 395.586C12.3 395.586 16.35 409.037 17.56 411.472C18.77 413.907 21.96 420.363 21.96 420.363L28.88 442.559C28.88 442.559 34.16 449.978 33.75 454.569L33.01 462.962L34.97 490.837L27.2 532.773L31.75 548.669L37.15 565.663L31.75 598.688C162.72 621.91 186.01 598.025 200.85 557.829C209.98 533.084 180.63 424.953 174.99 389.193H154.16L130.04 380.437L93.83 379.805L85.99 375.432L98.05 371.059L70.91 367.94L26.87 357.93L14.74 354.21L0.0100098 342.107C0.0100098 342.107 1.94001 353.837 2.20001 359.246C2.46001 364.655 6.33001 371.152 6.33001 371.152L6.31001 371.163Z" fill="#263238"/>
<path d="M110.59 127.586L103.53 103.898L106.42 88.0536L100.84 82.3336L95.59 83.8258C95.51 83.9812 95.48 84.1574 95.5 84.3335C95.52 84.5097 95.59 84.6755 95.7 84.8102C96.09 85.2351 99.7 85.2143 99.7 85.2143L101.26 86.5718L97.65 86.4682L94.65 88.4577C94.65 88.4577 94.58 90.81 94.51 93.297C94.43 95.7839 95.31 93.297 95.82 93.4731C96.33 93.6493 98.34 94.1156 98.34 94.1156L97.15 106.965L99.51 127.814L110.6 127.596L110.59 127.586Z" fill="white"/>
<path d="M99.12 128.581L96.69 107.048L97.83 94.7167L96.06 94.2711L95.85 94.4991C95.56 94.8514 95.17 95.3384 94.62 95.1104C94.07 94.8825 94 94.1467 94.03 93.3385L94.19 88.147L97.65 85.8465H98C95.81 85.7325 95.51 85.401 95.38 85.2662C95.18 85.0279 95.05 84.7274 95.02 84.4165C94.98 84.1057 95.04 83.7844 95.19 83.5046L95.32 83.2559L101.22 81.5669L107.31 87.8257L104.4 103.856L111.66 128.239L99.13 128.591L99.12 128.581ZM98 107.037L100.27 127.192L109.88 126.943L103.04 103.949L105.87 88.3024L100.83 83.173L96.41 84.4373C97.56 84.5616 98.71 84.6238 99.86 84.6134H100.12L103.24 87.3905L97.99 87.2247L95.44 88.8931L95.36 93.0898C95.47 92.9862 95.61 92.9136 95.76 92.8825C95.91 92.8515 96.06 92.8515 96.2 92.8825C96.72 93.0276 98.69 93.5043 98.69 93.5043L99.25 93.639L97.98 107.017L98 107.037Z" fill="#263238"/>
<path d="M104.68 90.9241L98.79 89.1107L95.2 90.3023L94.79 89.0071L98.77 87.691L105.07 89.6081L104.69 90.9137L104.68 90.9241Z" fill="#263238"/>
<path d="M104.23 93.4006L98.79 92.0121L95.01 92.5509L94.84 91.2038L98.85 90.6235L104.54 92.0743L104.22 93.3903L104.23 93.4006Z" fill="#263238"/>
<path d="M20.84 88.2402C20.84 88.2402 17.02 95.0379 17.27 95.4731C17.52 95.9084 21.02 104.188 21.02 104.188L16.39 123.514L25.16 124.602L25.32 112.789L22.8 112.146L25.16 95.8255L27.56 91.3282L20.84 88.2402Z" fill="white"/>
<path d="M25.82 125.317L15.6 124.052L20.35 104.198C19.04 101.058 16.94 96.1673 16.73 95.7839C16.52 95.4005 16.27 95.0275 20.29 87.8567L20.59 87.3282L28.46 91.0172L25.84 96.043L23.58 111.586L26.03 112.208L25.82 125.317ZM17.23 122.881L24.53 123.793L24.67 113.265L22.05 112.612L24.57 95.4938L26.63 91.6493L21.09 89.0795C19.93 91.1209 18.88 93.2348 17.95 95.4005C18.54 96.6543 20.88 102.198 21.64 103.98L21.73 104.198L17.23 122.881Z" fill="#263238"/>
<path d="M20.69 92.955C20.69 92.955 24.63 96.5404 25.15 95.8668C26.16 94.499 26.96 92.9757 27.55 91.3696C27.72 90.4059 24.85 87.8257 24.85 87.8257C25.66 88.3334 26.5 88.779 27.36 89.1831C27.88 89.3282 28.67 89.3593 28.84 88.6754C29.01 87.9915 24.42 84.5926 24.42 84.5926C24.42 84.5926 23.66 83.3181 22.95 84.4061C22.24 85.4941 19.16 90.3748 19.13 91.4939" fill="white"/>
<path d="M24.96 96.6337C23.87 96.6337 21.56 94.6648 20.26 93.4628L21.13 92.4473C22.24 93.5353 23.47 94.4679 24.8 95.2348C25.66 94.012 26.37 92.6753 26.91 91.266C26.26 90.1365 25.42 89.1417 24.42 88.3438L25.18 87.2454C25.94 87.7221 26.73 88.1469 27.54 88.5096C27.72 88.5407 27.9 88.5407 28.08 88.5096C26.83 87.2661 25.47 86.147 24.04 85.1419L23.86 84.9346C23.79 84.8206 23.69 84.7274 23.58 84.6445L23.5 84.7688C22.01 86.8724 20.76 89.1624 19.79 91.5665H18.48C18.48 90.209 21.5 85.546 22.42 84.1263C22.53 83.8984 22.7 83.7119 22.91 83.5875C23.12 83.4528 23.36 83.3906 23.6 83.3906C23.86 83.4113 24.12 83.5046 24.35 83.6393C24.58 83.7844 24.77 83.9709 24.92 84.1989C29.76 87.7324 29.6 88.4682 29.51 88.8619C29.47 89.0484 29.39 89.2246 29.29 89.3697C29.18 89.5251 29.04 89.6495 28.89 89.7427C28.53 89.95 28.11 90.0225 27.7 89.9603C28.06 90.4059 28.25 90.9655 28.24 91.5561C27.64 93.2866 26.78 94.9135 25.69 96.3643C25.61 96.4575 25.51 96.5404 25.4 96.5922C25.29 96.644 25.17 96.6751 25.05 96.6855L24.98 96.6233L24.96 96.6337Z" fill="#263238"/>
<path d="M26.4 93.2348C25.25 92.1157 22.17 89.1521 21.75 88.8309L22.58 87.7532C23.1 88.1988 26.87 91.8359 27.29 92.2401L26.4 93.2348Z" fill="#263238"/>
<path d="M21.57 90.0847L20.76 91.1624L25.6 95.0586L26.41 93.981L21.57 90.0847Z" fill="#263238"/>
<path d="M24.07 85.8051L23.07 86.6858L24.36 88.2506L25.36 87.3698L24.07 85.8051Z" fill="#263238"/>
<path d="M42.48 207.231C42.48 207.231 43.06 224.795 42.14 231.054C41.22 237.313 43.99 269.726 47.39 278.409C50.79 287.103 57.78 306.201 58.43 309.082C59.07 311.963 58.61 324.138 58.61 324.138C58.61 324.138 57.09 338.2 56.48 339.899C55.05 342.759 53.43 345.516 51.63 348.137C49.27 350.428 46.68 352.448 43.91 354.179C41.85 355.443 38.88 356.106 40.3 357.692C41.72 359.267 51.83 359.577 55.34 359.515C58.56 359.267 61.73 358.593 64.79 357.526C65.71 357.173 66.35 354.521 66.18 353.951C66.01 353.381 68.38 354.023 70.23 353.692C72.08 353.36 75.58 353.298 75.64 351.205C75.11 346.666 74.27 342.179 73.11 337.775C72.76 336.998 70.6 322.822 70.6 322.822C70.6 322.822 75.35 306.066 75.85 299.207C76.2 294.067 75.13 290.969 75.19 284.088C75.26 277.207 88.08 248.732 89.05 240.753C90.02 232.774 89.81 223.821 86.35 216.66C82.89 209.5 79.79 202.91 79.79 202.91L77.27 200.734L42.03 204.36L42.49 207.241L42.48 207.231Z" fill="#B0B0B0"/>
<path d="M54.69 360.178C51.92 360.178 41.57 360.044 39.85 358.137C39.65 357.951 39.49 357.723 39.4 357.464C39.31 357.204 39.28 356.925 39.32 356.645C39.5 355.64 40.63 355.08 41.94 354.427C42.49 354.179 43.02 353.899 43.54 353.588C46.23 351.899 48.75 349.94 51.07 347.744C52.83 345.163 54.42 342.469 55.83 339.671C56.25 338.48 57.31 329.693 57.92 324.076C57.92 323.993 58.38 312.004 57.76 309.258C57.14 306.512 50.1 287.207 46.75 278.679C43.4 270.151 40.44 237.675 41.42 230.971C42.31 224.992 41.8 208.308 41.76 207.314L41.2 203.77L77.42 200.039L80.32 202.619C80.32 202.619 83.43 209.199 86.88 216.37C89.92 222.681 90.82 230.919 89.65 240.846C89.18 244.69 86.13 252.887 82.91 261.581C79.43 270.928 75.84 280.617 75.8 284.098C75.8 286.73 75.93 289.362 76.21 291.974C76.51 294.398 76.59 296.834 76.46 299.279C76 305.87 71.75 321.102 71.21 322.884C72.02 328.231 73.38 336.811 73.64 337.516C74.85 342.013 75.73 346.604 76.26 351.236C76.19 353.588 73.35 353.951 71.26 354.241L70.3 354.386C69.38 354.49 68.45 354.49 67.53 354.386H66.81C66.81 355.609 66.06 357.754 64.97 358.179C61.84 359.267 58.6 359.95 55.31 360.21H54.68L54.69 360.178ZM42.78 204.961L43.13 207.22C43.13 207.946 43.71 224.898 42.78 231.168C41.85 237.437 44.76 269.86 48.03 278.171C51.42 286.761 58.44 305.932 59.1 308.937C59.77 311.942 59.31 323.662 59.3 324.169C59.14 325.662 57.74 338.418 57.13 340.127C55.68 343.05 54.03 345.858 52.2 348.531C51.33 349.795 46.35 353.484 44.33 354.759C43.78 355.101 43.19 355.381 42.61 355.671C42.03 355.951 40.73 356.583 40.68 356.894C40.68 356.894 40.68 357.028 40.88 357.225C41.86 358.313 50.25 358.935 55.42 358.831C58.55 358.572 61.63 357.919 64.6 356.883C65.06 356.707 65.66 354.655 65.58 354.168C65.54 354.044 65.53 353.909 65.56 353.785C65.58 353.661 65.64 353.536 65.71 353.433C66.05 352.997 66.63 353.028 67.68 353.091C68.5 353.184 69.34 353.184 70.16 353.091L71.17 352.935C72.77 352.718 74.99 352.417 75.01 351.236C74.48 346.811 73.65 342.417 72.53 338.117C72.18 337.33 70.5 326.345 69.98 322.988V322.688C69.98 322.522 74.7 305.932 75.23 299.217C75.36 296.865 75.28 294.502 74.99 292.16C74.7 289.497 74.56 286.824 74.57 284.14C74.57 280.389 78.09 271.042 81.76 261.146C84.82 252.918 87.98 244.411 88.44 240.753C89.62 231.095 88.73 223.075 85.82 217.064C82.64 210.484 79.76 204.391 79.26 203.469L76.99 201.469L42.77 204.961H42.78Z" fill="#263238"/>
<path d="M66.75 347.661L69.23 332.49L57.87 330.978C57.58 333.962 57.14 336.936 56.56 339.868C55.13 342.728 53.51 345.485 51.71 348.106C49.35 350.386 46.76 352.417 43.99 354.148C41.93 355.412 38.96 356.075 40.38 357.661C41.8 359.236 51.91 359.546 55.42 359.484C58.64 359.236 61.81 358.562 64.87 357.495C65.39 357.287 65.81 356.355 66.06 355.474L66.26 353.92V353.806L66.76 347.661H66.75Z" fill="white"/>
<path d="M54.69 360.179C51.92 360.179 41.57 360.044 39.85 358.137C39.65 357.951 39.49 357.723 39.4 357.464C39.31 357.205 39.28 356.925 39.32 356.645C39.5 355.64 40.63 355.08 41.94 354.427C42.49 354.179 43.02 353.899 43.54 353.588C46.23 351.899 48.75 349.941 51.07 347.744C52.83 345.164 54.42 342.469 55.83 339.671C56.45 336.78 56.88 333.858 57.14 330.915V330.563L57.63 330.304H57.88L69.91 331.9L67.29 347.754L66.75 353.868L66.53 355.578C66.25 356.624 65.76 357.816 64.92 358.148C61.79 359.236 58.55 359.919 55.26 360.179H54.68H54.69ZM58.4 331.734C57.51 339.008 57.21 339.889 57.09 340.127C55.64 343.05 53.99 345.858 52.16 348.531C51.29 349.795 46.31 353.484 44.29 354.759C43.74 355.101 43.15 355.381 42.57 355.671C41.99 355.951 40.69 356.583 40.64 356.894C40.64 356.894 40.64 357.028 40.84 357.225C41.82 358.313 50.21 358.935 55.38 358.831C58.51 358.572 61.59 357.92 64.57 356.883C64.98 356.458 65.25 355.909 65.36 355.319L65.52 353.961V353.65L66.07 347.516L68.43 333.029L58.42 331.734H58.4Z" fill="#263238"/>
<path d="M67.38 345.008L66.21 353.816C66.43 353.464 68.56 353.982 70.25 353.681C71.94 353.381 75.6 353.288 75.66 351.194C75.13 346.656 74.29 342.169 73.13 337.765C72.78 336.988 70.62 322.812 70.62 322.812L69.23 332.48L67.38 345.018V345.008Z" fill="white"/>
<path d="M65.19 356.832L66.78 344.904L70.65 318.304L71.32 322.698C72.13 328.024 73.51 336.76 73.77 337.475C74.98 341.972 75.86 346.562 76.39 351.194C76.32 353.547 73.48 353.909 71.39 354.199L70.43 354.345C69.51 354.448 68.58 354.448 67.66 354.345H66.73L65.18 356.821L65.19 356.832ZM67.02 353.018H67.7C68.52 353.111 69.36 353.111 70.18 353.018L71.18 352.873C72.79 352.656 75.01 352.355 75.04 351.174C74.51 346.749 73.68 342.355 72.56 338.055C72.31 337.485 71.38 331.744 70.68 327.278L68.06 345.132L67.02 353.029V353.018Z" fill="#263238"/>
<path d="M55.36 359.495C58.58 359.246 61.75 358.572 64.81 357.505C64.92 357.453 65.02 357.381 65.11 357.287C65.21 357.194 65.29 357.08 65.36 356.956L65.44 356.852L65.62 356.49C65.66 356.407 65.69 356.334 65.71 356.241C65.74 356.189 65.76 356.137 65.78 356.075C65.78 355.889 65.91 355.702 65.96 355.516L66.16 353.961V353.847L66.63 348.48C64.2 348.739 61.75 348.77 59.31 348.583C58.86 347.454 58.34 346.355 57.76 345.288C57.24 344.428 55.14 344.335 54.01 344.366C53 346.024 51.98 347.588 51.6 348.148C49.24 350.428 46.65 352.459 43.88 354.189C41.82 355.453 38.85 356.117 40.27 357.702C41.69 359.287 51.86 359.557 55.36 359.484V359.495Z" fill="#263238"/>
<path d="M54.69 360.178C51.92 360.178 41.57 360.044 39.85 358.137C39.65 357.951 39.49 357.723 39.4 357.464C39.31 357.204 39.28 356.925 39.32 356.645C39.5 355.64 40.63 355.08 41.94 354.427C42.49 354.179 43.02 353.899 43.54 353.588C46.23 351.899 48.75 349.94 51.07 347.744C51.42 347.215 52.45 345.651 53.46 343.993L53.66 343.682H54.01C56.35 343.682 57.8 344.065 58.31 344.915C58.86 345.878 59.34 346.884 59.75 347.92C62.01 348.075 64.29 348.034 66.55 347.795L67.35 347.702L66.81 353.878L66.59 355.588C66.54 355.826 66.47 356.054 66.38 356.282L66.21 356.728C66.13 356.894 66.05 357.039 65.97 357.173L65.89 357.298C65.8 357.453 65.69 357.609 65.56 357.733C65.39 357.919 65.19 358.065 64.97 358.158C61.84 359.246 58.6 359.93 55.31 360.189H54.67L54.69 360.178ZM54.43 345.029C53.46 346.593 52.54 348.003 52.19 348.521C51.32 349.785 46.34 353.474 44.32 354.749C43.77 355.091 43.18 355.37 42.6 355.66C42.02 355.94 40.72 356.572 40.67 356.883C40.67 356.883 40.67 357.018 40.87 357.215C41.85 358.303 50.24 358.925 55.41 358.821C58.54 358.562 61.62 357.909 64.59 356.873L64.7 356.78C64.77 356.707 64.82 356.635 64.87 356.552C64.95 356.427 65.02 356.293 65.08 356.158L65.16 355.971L65.82 356.096L65.23 355.816L65.39 355.308L65.55 353.951V353.64L65.96 349.184C63.75 349.371 61.52 349.371 59.31 349.184H58.92L58.76 348.801C58.35 347.702 57.88 346.635 57.34 345.609C57.14 345.443 56.4 345.07 54.45 345.049L54.43 345.029Z" fill="#263238"/>
<path d="M70.25 353.743C72.1 353.433 75.6 353.35 75.66 351.256C75.53 349.391 75.27 347.536 74.87 345.713C72.84 346.438 70.74 346.946 68.61 347.226C68.1 347.226 67.58 347.277 67.07 347.371L66.2 353.888C66.49 353.464 68.55 353.982 70.24 353.754L70.25 353.743Z" fill="#263238"/>
<path d="M65.19 356.831L66.5 346.738L66.95 346.635C67.5 346.531 68.05 346.479 68.6 346.469C70.67 346.21 72.71 345.713 74.68 344.987L75.39 344.759L75.53 345.505C75.95 347.381 76.22 349.288 76.33 351.205C76.26 353.557 73.42 353.92 71.33 354.21L70.37 354.355C69.45 354.458 68.52 354.458 67.6 354.355H66.67L65.19 356.831ZM67.02 353.018H67.7C68.52 353.111 69.36 353.111 70.18 353.018L71.18 352.873C72.79 352.655 75.01 352.355 75.04 351.174C74.94 349.609 74.73 348.055 74.4 346.521C72.55 347.194 70.63 347.65 68.68 347.878C68.25 347.878 67.93 347.878 67.71 347.951L67.03 353.018H67.02Z" fill="#263238"/>
<path d="M72.67 223.935L71.65 223.075L72.96 221.468L73.8 220.411L74.82 221.251L73.98 222.329L72.67 223.935Z" fill="#263238"/>
<path d="M58.43 301.165C58.33 297.497 58.14 292.191 57.88 287.777C57.51 281.518 59.35 270.399 60.5 263.757C60.84 261.695 61.1 260.058 61.17 259.363C61.45 256.545 63.79 238.318 65.79 232.929C66.73 230.567 67.94 228.328 69.39 226.256L70.47 227.043C69.08 229.023 67.93 231.157 67.03 233.416C65.06 238.587 62.74 256.814 62.49 259.498C62.49 260.234 62.16 261.809 61.79 263.985C60.78 270.14 58.88 281.663 59.24 287.694C59.5 292.139 59.69 297.445 59.79 301.124L58.43 301.165Z" fill="#263238"/>
<path d="M58.63 307.154C58.63 307.154 58.63 305.797 58.55 303.704H59.86C59.86 305.807 59.94 307.175 59.94 307.175H58.63V307.154Z" fill="#263238"/>
<path d="M53.69 228.857C50.6 225.116 47.96 221.013 45.82 216.619L47 216.008C49.08 220.277 51.63 224.277 54.62 227.924L53.69 228.857Z" fill="#263238"/>
<path d="M36.12 134.84C36.12 134.84 32.18 132.301 32.18 130.757C32.18 129.213 36.43 128.964 36.6 128.487C36.77 128.011 34.3 127.296 35.5 123.472C36.69 119.648 46.23 117.856 51.35 118.032C56.47 118.208 63.93 122.788 64.8 125.057C65.67 127.327 67.57 130.777 67 134.135C66.64 136 66.97 137.938 67.92 139.575C67.92 139.575 77.96 141.668 78.61 145.554C79.27 149.44 77.42 154.362 77.42 154.362C77.42 154.362 85.29 154.611 87.73 162.248C90.17 169.885 83.4 172.082 83.98 173.543C84.56 175.014 87.51 174.776 87.51 180.092C87.51 185.408 79.26 191.563 74.57 192.06C69.89 192.547 60.44 192.578 55.11 183.553C49.78 174.527 53.96 165.491 51.17 159.46C48.39 153.419 47.99 146.01 46.2 143.865C44.4 141.72 36.11 134.819 36.11 134.819L36.12 134.84Z" fill="#263238"/>
<path d="M71.46 192.879C63.89 192.879 58.09 189.791 54.6 183.864C51.41 178.423 51.52 173.108 51.61 168.382C51.68 165.025 51.73 162.113 50.63 159.719C49.35 156.652 48.38 153.471 47.72 150.207C47.1 147.492 46.55 145.192 45.76 144.249C44.08 142.238 36.3 135.803 35.75 135.358C34.71 134.674 31.51 132.467 31.56 130.622C31.56 129.047 33.7 128.539 35.21 128.177L35.59 128.083C34.92 127.337 34.04 125.938 34.92 123.151C36.32 118.705 46.51 117.089 51.4 117.234C56.56 117.41 64.4 121.97 65.44 124.695C65.6 125.12 65.79 125.565 66 126.052C66.92 128.228 68.18 131.192 67.68 134.145C67.38 135.772 67.62 137.451 68.36 138.912C70.25 139.337 78.62 141.399 79.29 145.368C79.58 148.186 79.26 151.046 78.35 153.72C80.57 154.051 86.37 155.523 88.4 161.989C90.18 167.657 87.18 170.652 85.57 172.268C85.22 172.579 84.9 172.931 84.64 173.325C84.87 173.605 85.14 173.843 85.45 174.019C86.55 174.807 88.21 176.009 88.21 180.04C88.21 185.708 79.65 192.154 74.69 192.682C73.57 192.806 72.5 192.869 71.46 192.869V192.879ZM50.66 118.591C45.25 118.591 37.14 120.467 36.16 123.586C35.4 126.011 36.26 126.902 36.79 127.431C37.07 127.71 37.43 128.094 37.25 128.622C37.07 129.151 36.54 129.265 35.5 129.503C34.79 129.679 32.88 130.145 32.88 130.674C32.88 131.41 34.73 133.088 36.49 134.218C36.83 134.487 44.9 141.14 46.71 143.316C47.71 144.497 48.26 146.849 48.95 149.844C49.57 153.015 50.52 156.113 51.77 159.077C53 161.792 52.94 164.963 52.87 168.351C52.78 172.89 52.69 178.05 55.66 183.107C60.33 191.024 68.49 191.936 74.49 191.262C78.91 190.796 86.84 184.921 86.84 179.978C86.84 176.662 85.67 175.823 84.65 175.066C84.09 174.755 83.63 174.289 83.34 173.709C82.99 172.828 83.72 172.092 84.57 171.242C86.18 169.636 88.61 167.16 87.08 162.362C84.85 155.274 77.66 154.942 77.36 154.942H76.44L76.77 154.041C76.77 154.041 78.55 149.243 77.94 145.596C77.51 143.109 71.47 140.943 67.77 140.155H67.51L67.37 139.948C66.3 138.145 65.93 136 66.33 133.928C66.76 131.399 65.63 128.747 64.73 126.622L64.15 125.265C63.44 123.389 56.28 118.819 51.29 118.654L50.66 118.571V118.591Z" fill="#263238"/>
<path d="M39.38 145.326L26.72 139.15L27.37 129.513L15.92 128.695C15.92 128.695 12.66 146.767 13.53 148.435C14.4 150.103 36.84 169.087 36.84 169.087C36.84 169.087 40.16 195.086 39.65 199.407C39.36 202.288 39.27 205.189 39.37 208.08C39.37 208.08 51.23 211.655 61.23 211.313C71.23 210.972 85.8 203.003 85.8 203.003C85.8 203.003 82.06 195.003 82.09 194.516C82.12 194.029 85.26 168.393 85.26 168.393C85.26 168.393 107.94 153.616 109.3 152.683C111.13 151.077 112.86 149.357 114.46 147.533L113.35 133.037L99.7 133.119L97.06 142.632L66.32 151.513L39.38 145.295V145.326Z" fill="#F0BB1F"/>
<path d="M59.5 211.987C52.55 211.759 45.67 210.661 39.01 208.702L38.54 208.567V208.08C38.44 205.158 38.54 202.226 38.82 199.314C39.25 195.324 36.37 172.123 36.03 169.398C31.85 165.844 13.93 150.362 12.99 148.746C12.06 147.129 14.55 132.881 15.35 128.581L15.46 127.969L28.14 128.892L27.48 138.746L39.51 144.673L66.01 150.891L95.92 142.176L98.57 132.467L113.3 132.384L114.46 147.792L114.27 148C112.65 149.875 110.9 151.637 109.04 153.274C107.76 154.145 88.12 167.056 85.46 168.818C84.39 177.646 82.39 193.988 82.35 194.651C82.31 195.314 84.3 199.19 85.99 202.806L86.25 203.376L85.69 203.676C85.09 204.008 70.98 211.687 61.02 212.039L59.5 211.997V211.987ZM39.9 207.542C42.17 208.184 52.27 210.899 60.82 210.598C69.37 210.298 81.56 204.153 84.29 202.713C80.79 195.128 80.8 194.682 80.82 194.558C80.82 194.071 83.44 172.652 83.96 168.372V168.061L84.22 167.885C84.44 167.75 106.71 153.108 108.04 152.196C109.75 150.694 111.35 149.088 112.84 147.368L111.82 133.772L99.47 133.845L96.9 143.285L65.87 152.342L38.84 145.969L25.91 139.596L26.54 130.197L16.5 129.462C14.94 137.907 13.63 147.057 14.1 148.134C14.81 149.305 28.55 161.305 37.04 168.527L37.24 168.704V168.963C37.38 170.02 40.55 195.086 40.03 199.428C39.82 202.132 39.77 204.847 39.9 207.562V207.542Z" fill="#263238"/>
<path d="M56.71 206.205L55.87 205.158C57.71 203.583 68.99 190.527 69.14 190.402L70.11 191.304C69.65 191.843 58.63 204.557 56.71 206.205Z" fill="#263238"/>
<path d="M64.37 190.951L59.24 198.412L60.31 199.2L65.44 191.739L64.37 190.951Z" fill="#263238"/>
<path d="M35.26 169.046L32.95 158.942L31.34 165.035L35.26 169.046Z" fill="#263238"/>
<path d="M36.42 171.18L30.59 165.243L32.98 156.196L36.42 171.18ZM32.07 164.828L34.09 166.89L32.9 161.668L32.07 164.818V164.828Z" fill="#263238"/>
<path d="M55.22 150.383C54.07 147.772 55.94 141.886 55.94 141.886C55.94 141.886 57.78 137.803 55.64 136.446C53.5 135.088 51.52 139.534 51.52 139.534C51.52 139.534 48.42 138.953 47.24 137.14C46.06 135.337 46.12 132.923 44.62 130.943C43.11 128.954 39.29 127.389 39.29 127.389C39.29 127.389 35.85 133.233 36.11 134.85C36.26 135.751 36.34 136.653 36.35 137.565C36.35 137.565 32.49 141.948 33.24 142.611C34.2 143.202 35.23 143.658 36.31 143.969C36.31 143.969 37.71 153.979 39.1 154.196C40.66 154.238 42.23 154.124 43.77 153.854L46.15 157.471C46.15 157.471 45.51 163.087 46.85 165.367C48.19 167.647 53.71 169.294 57.53 166.362C61.35 163.419 62.38 154.29 62.41 153.481C62.46 152.829 62.59 152.186 62.78 151.564C62.78 151.564 56.39 152.984 55.22 150.373V150.383Z" fill="white"/>
<path d="M52.7 168.641C52.05 168.641 51.4 168.579 50.76 168.455C48.98 168.196 47.38 167.222 46.3 165.74C44.99 163.533 45.38 158.828 45.49 157.668L43.48 154.611C42.01 154.86 40.52 154.953 39.03 154.88C37.81 154.704 36.69 151.212 35.74 144.508C34.72 144.197 33.74 143.741 32.84 143.15C32.74 143.067 32.66 142.953 32.6 142.829C32.54 142.705 32.51 142.57 32.51 142.435C32.51 141.243 34.6 138.591 35.71 137.306C35.69 136.518 35.62 135.72 35.49 134.943C35.2 133.213 37.92 128.446 38.74 127.016L39.03 126.529L39.54 126.747C39.71 126.819 43.57 128.405 45.14 130.508C45.91 131.596 46.45 132.84 46.75 134.156C46.97 135.067 47.31 135.938 47.77 136.736C48.66 137.762 49.85 138.456 51.16 138.725C51.77 137.358 52.82 136.249 54.14 135.596C54.45 135.492 54.77 135.472 55.08 135.513C55.4 135.554 55.7 135.668 55.97 135.845C58.59 137.503 56.61 142 56.53 142.197C56.04 143.689 54.94 148.197 55.81 150.124C56.68 152.051 61.06 151.295 62.65 150.953L63.75 150.725L63.41 151.823C63.23 152.383 63.12 152.974 63.07 153.564C63.07 153.657 62.2 163.667 57.91 166.963C56.39 168.103 54.56 168.693 52.69 168.662L52.7 168.641ZM44.09 153.139L46.83 157.315V157.574C46.66 159.067 46.45 163.326 47.43 165.056C48.33 166.196 49.62 166.932 51.03 167.118C52.08 167.356 53.17 167.367 54.23 167.149C55.29 166.932 56.29 166.486 57.17 165.844C60.61 163.129 61.76 154.559 61.79 153.502C61.81 153.15 61.85 152.797 61.92 152.455C59.91 152.766 55.73 153.077 54.65 150.673C53.34 147.855 55.27 141.927 55.35 141.668C55.43 141.409 56.91 138 55.35 136.995C55.24 136.912 55.11 136.86 54.98 136.839C54.85 136.819 54.71 136.839 54.58 136.871C53.53 137.212 52.45 139.13 52.17 139.782L51.96 140.259L51.46 140.166C51.32 140.166 48.09 139.513 46.75 137.451C46.21 136.539 45.81 135.544 45.56 134.498C45.3 133.347 44.84 132.259 44.18 131.285C42.88 129.938 41.33 128.881 39.63 128.166C38.15 130.788 36.72 133.865 36.85 134.663C37.01 135.617 37.09 136.57 37.09 137.534V137.793L36.93 137.969C35.74 139.212 34.73 140.632 33.93 142.166C34.77 142.632 35.64 143.015 36.55 143.295L36.96 143.42V143.844C37.56 148.114 38.65 153.025 39.31 153.543C40.77 153.543 42.24 153.43 43.68 153.181L44.11 153.15L44.09 153.139Z" fill="#263238"/>
<path d="M38.42 147.036C38.63 146.787 38.95 146.58 39.34 146.414C39.73 146.248 40.17 146.456 40.64 146.414C42.16 146.342 44.1 145.181 44.07 145.865C44.04 146.539 42.58 147.689 40.72 147.855C38.86 148.02 38.21 147.71 38.42 147.036Z" fill="#263238"/>
<path d="M40.26 137.192C40.26 137.99 39.91 138.632 39.53 138.622C39.15 138.611 38.85 137.959 38.87 137.15C38.9 136.342 39.22 135.71 39.6 135.793C39.98 135.876 40.26 136.404 40.26 137.192Z" fill="#263238"/>
<path d="M38.63 134.84L37.67 133.897C38.11 133.441 38.66 133.099 39.26 132.912C39.86 132.726 40.49 132.695 41.11 132.819L40.83 134.176C40.44 134.093 40.03 134.104 39.65 134.218C39.27 134.332 38.91 134.539 38.63 134.829V134.84Z" fill="#263238"/>
<path d="M43.79 153.875L49.73 152.134L46.16 157.492L43.78 153.875H43.79Z" fill="#263238"/>
<path d="M46.15 158.683L42.73 153.471L51.31 150.953L46.15 158.673V158.683ZM44.84 154.269L46.15 156.3L48.14 153.305L44.83 154.269H44.84Z" fill="#263238"/>
<path d="M46.72 157.119L45.58 157.792L48.08 162.372L49.22 161.699L46.72 157.119Z" fill="#263238"/>
<path d="M98.84 128.135L98.01 135.026L112.72 136.301L112.51 127.772L98.84 128.125V128.135Z" fill="#F0BB1F"/>
<path d="M113.58 137.057L97.47 135.7L98.44 127.544L113.33 127.151L113.58 137.067V137.057ZM98.93 134.415L112.22 135.565L112.05 128.467L99.6 128.798L98.93 134.415Z" fill="#263238"/>
<path d="M15.04 123.514L14.62 132.663L27.62 133.575L27.57 125.047L15.04 123.514Z" fill="#F0BB1F"/>
<path d="M28.29 134.29L13.92 133.296L14.42 122.747L28.22 124.436L28.29 134.29ZM15.3 132.042L26.96 132.84V125.648L15.7 124.291L15.29 132.042H15.3Z" fill="#263238"/>
<path d="M35.49 9.60059L31.09 27.6621L27.1 27.7864L25.46 16.2428L22.77 27.9315L18.88 28.0559L16.24 10.7197L19.67 10.5228L21.06 23.2374L23.96 10.2741L27.57 10.0669L29.32 22.9162L31.88 9.81819L35.5 9.61095L35.49 9.60059Z" fill="#263238"/>
<path d="M40.43 12.8544L40.25 16.5227L44.85 16.3051L44.68 19.7246L40.08 19.9215L39.89 23.8799L45.08 23.6934L44.9 27.2269L36.34 27.4964L37.19 9.49703L45.83 8.99963L45.65 12.5746L40.43 12.8544Z" fill="#263238"/>
<path d="M52.57 12.9372C53.27 11.4762 54.2 10.3052 55.36 9.44514C56.53 8.5747 57.83 8.09804 59.26 8.01514C61.03 7.91152 62.51 8.41927 63.71 9.51767C64.91 10.6264 65.67 12.1912 65.98 14.2118L61.96 14.4087C61.71 13.6419 61.32 13.0719 60.8 12.6885C60.28 12.3051 59.67 12.1393 58.98 12.1704C57.87 12.2326 56.95 12.7611 56.21 13.7662C55.47 14.7714 55.06 16.077 54.97 17.6935C54.88 19.3101 55.15 20.5846 55.78 21.5172C56.41 22.4498 57.27 22.9058 58.38 22.8643C59.07 22.8436 59.69 22.6156 60.26 22.1908C60.83 21.7659 61.28 21.1546 61.62 20.367L65.63 20.2012C65.08 22.2426 64.14 23.8591 62.81 25.0612C61.49 26.2528 59.95 26.8849 58.2 26.9367C56.78 26.9782 55.53 26.6259 54.46 25.8694C53.39 25.113 52.59 24.0456 52.05 22.6571C51.51 21.2685 51.29 19.6727 51.38 17.8593C51.47 16.0459 51.87 14.4087 52.57 12.9476V12.9372Z" fill="#263238"/>
<path d="M77.23 22.8643L71.48 23.0716L70.36 26.4186L66.5 26.543L73.17 7.42448L77.55 7.17578L81.96 26.0559L77.93 26.1803L77.22 22.8643H77.23ZM76.49 19.3308L75.01 12.4502L72.68 19.4862L76.48 19.3308H76.49Z" fill="#263238"/>
<path d="M98.09 25.5378L94.12 25.6622L88.39 13.9631L87.57 25.8694L83.71 25.9938L85.01 6.74059L88.91 6.51262L94.66 18.2739L95.53 6.12922L99.55 5.90125L98.1 25.5378H98.09Z" fill="#263238"/>
<path d="M27.39 35.2369L26.63 52.6249L23.41 52.6042L23.71 45.506L18.74 45.5371L18.46 52.5835H15.31L15.97 35.4753L19.14 35.4131L18.87 42.1693L23.85 42.1175L24.14 35.3095L27.39 35.2369Z" fill="#263238"/>
<path d="M32.89 38.5633L32.73 42.1176L37.19 42.0658L37.03 45.3817L32.57 45.4024L32.39 49.2365H37.42L37.25 52.6664L28.95 52.625L29.73 35.1748L38.11 34.9987L37.94 38.47L32.88 38.5529L32.89 38.5633Z" fill="#263238"/>
<path d="M43 49.3712H47.49L47.31 52.7182L39.45 52.6767L40.32 34.9572L43.73 34.8846L43 49.3608V49.3712Z" fill="#263238"/>
<path d="M59.91 43.3507C59.47 44.2315 58.83 44.9361 57.99 45.4749C57.16 46.0138 56.15 46.2832 54.96 46.2936H52.78L52.43 52.7493L48.96 52.7286L49.92 34.7603L55.62 34.6463C56.78 34.6256 57.76 34.8536 58.53 35.3406C59.31 35.8276 59.88 36.5115 60.23 37.3923C60.58 38.2731 60.73 39.2886 60.66 40.4389C60.6 41.4958 60.35 42.4699 59.9 43.3507H59.91ZM56.44 42.1797C56.79 41.7756 56.99 41.216 57.03 40.4907C57.07 39.7653 56.94 39.2057 56.63 38.812C56.32 38.4182 55.83 38.2317 55.15 38.242L53.23 38.2731L52.98 42.8118L54.89 42.7911C55.56 42.7911 56.08 42.5839 56.43 42.1797H56.44Z" fill="#263238"/>
<path d="M80.54 34.1282L74.38 46.7287L73.99 52.8425L70.3 52.8218L70.68 46.7391L66.23 34.4183L70.4 34.3354L72.86 42.0864L76.31 34.2111L80.55 34.1178L80.54 34.1282Z" fill="#263238"/>
<path d="M84.23 51.8685C83.06 51.0498 82.17 49.8996 81.55 48.4385C80.93 46.9775 80.68 45.3298 80.81 43.4854C80.94 41.6409 81.4 39.9933 82.22 38.5114C83.04 37.0296 84.1 35.8587 85.39 35.009C86.68 34.1593 88.09 33.7033 89.59 33.6722C91.09 33.6412 92.45 34.0349 93.66 34.8432C94.87 35.6514 95.78 36.812 96.41 38.3042C97.04 39.7964 97.28 41.4751 97.14 43.361C97 45.247 96.51 46.9256 95.66 48.4178C94.81 49.91 93.73 51.0706 92.43 51.8996C91.13 52.7182 89.73 53.1223 88.24 53.1223C86.75 53.1223 85.43 52.6975 84.25 51.8788L84.23 51.8685ZM91.67 47.4023C92.51 46.3868 92.99 45.0501 93.11 43.3817C93.23 41.7134 92.94 40.3456 92.24 39.3508C91.54 38.356 90.55 37.869 89.28 37.8897C88.01 37.9104 86.94 38.4182 86.11 39.4233C85.28 40.4181 84.82 41.7652 84.7 43.4543C84.58 45.1433 84.87 46.449 85.56 47.4334C86.25 48.4282 87.23 48.9256 88.51 48.9152C89.79 48.9048 90.83 48.4075 91.67 47.4023Z" fill="#263238"/>
<path d="M104 33.6412L103.11 45.2574C103.02 46.4179 103.2 47.2987 103.64 47.9205C104.08 48.5422 104.77 48.8531 105.72 48.8531C106.67 48.8531 107.42 48.5422 107.98 47.9101C108.54 47.278 108.86 46.3869 108.95 45.2263L109.87 33.5169L114 33.434L113.05 45.1745C112.91 46.9257 112.47 48.3971 111.73 49.5992C110.99 50.8012 110.06 51.7027 108.94 52.3037C107.82 52.9048 106.61 53.2053 105.3 53.1949C103.99 53.1845 102.86 52.884 101.88 52.2934C100.9 51.6924 100.17 50.8012 99.67 49.6095C99.17 48.4179 98.98 46.9671 99.11 45.247L99.97 33.7241L104 33.6412Z" fill="#263238"/>
<path d="M17.14 75.6811C16.17 74.9143 15.41 73.8677 14.87 72.5309C14.33 71.2046 14.1 69.7227 14.16 68.0855C14.22 66.4482 14.57 64.9768 15.21 63.6919C15.85 62.3966 16.69 61.3811 17.73 60.6661C18.77 59.9511 19.91 59.5884 21.13 59.6091C22.35 59.6298 23.48 60.0236 24.47 60.7801C25.47 61.5469 26.24 62.6038 26.78 63.9406C27.32 65.2773 27.55 66.8006 27.48 68.4689C27.41 70.1372 27.04 71.6294 26.38 72.9351C25.72 74.2407 24.86 75.2459 23.81 75.9401C22.76 76.6344 21.63 76.9556 20.41 76.9038C19.19 76.852 18.1 76.4479 17.12 75.6707L17.14 75.6811ZM23.13 71.9195C23.8 71.0388 24.16 69.8574 24.23 68.3756C24.3 66.8938 24.03 65.6711 23.44 64.7592C22.85 63.8473 22.03 63.381 20.99 63.3603C19.95 63.3396 19.09 63.7644 18.43 64.6348C17.78 65.5053 17.42 66.6866 17.36 68.1891C17.3 69.6917 17.56 70.8626 18.14 71.7745C18.72 72.676 19.53 73.1527 20.58 73.1941C21.63 73.2356 22.47 72.8107 23.13 71.9299V71.9195Z" fill="#263238"/>
<path d="M32.9 60.034L32.42 70.3445C32.37 71.3704 32.53 72.1683 32.9 72.7382C33.27 73.3082 33.84 73.5983 34.61 73.6294C35.38 73.6605 35.99 73.4014 36.43 72.8626C36.87 72.3237 37.12 71.5362 37.17 70.5L37.68 60.1169L41.03 60.1687L40.51 70.5829C40.43 72.1372 40.11 73.4325 39.53 74.4791C38.96 75.5257 38.22 76.3029 37.32 76.8106C36.42 77.3184 35.44 77.5463 34.38 77.5049C33.32 77.4634 32.38 77.1629 31.58 76.6034C30.77 76.0438 30.15 75.2252 29.72 74.1475C29.29 73.0698 29.11 71.7745 29.18 70.2513L29.64 60.0133L32.92 60.0651L32.9 60.034Z" fill="#263238"/>
<path d="M53.57 60.3553L53.38 63.8266L49.61 63.7541L48.85 77.909L45.44 77.7743L46.18 63.6919L42.48 63.6194L42.65 60.1998L53.57 60.3656V60.3553Z" fill="#263238"/>
<path d="M55.61 77.7122C55.25 77.2562 55.08 76.6967 55.12 76.0438C55.16 75.391 55.38 74.8211 55.8 74.3755C56.21 73.9403 56.73 73.7227 57.35 73.7434C57.97 73.7641 58.44 74.0128 58.8 74.4791C59.17 74.9454 59.33 75.5257 59.29 76.1993C59.25 76.8728 59.02 77.4013 58.61 77.8365C58.19 78.2717 57.68 78.4686 57.08 78.4479C56.48 78.4272 55.98 78.1785 55.61 77.7225V77.7122ZM60.02 59.8164L58.89 72.0233L55.91 71.93L56.19 59.7543L60.02 59.8061V59.8164Z" fill="#263238"/>
</g>
<defs>
<clipPath id="clip0_1_632">
<rect width="202.59" height="607.294" fill="white" transform="translate(0 0.502441)"/>
</clipPath>
</defs>
</svg>
