<svg width="40" height="41" viewBox="0 0 40 41" fill="none" xmlns="http://www.w3.org/2000/svg">
<path d="M30.9015 16.8032C32.1145 16.8032 33.2844 16.1893 34.3105 15.6509C36.2389 14.6391 37.4915 14.0897 38.8509 15.5207C39.0384 15.7179 39.3288 15.7798 39.5814 15.6802C39.8346 15.5786 40.0007 15.3338 40.0007 15.061V8.39425C40.0007 8.22303 39.9349 8.05831 39.8171 7.93461C37.6933 5.70345 35.4739 6.86754 33.6907 7.80375C31.7609 8.81613 30.5096 9.36302 29.1502 7.93461C28.9621 7.73669 28.6717 7.67419 28.4197 7.7751C28.1665 7.87667 28.0005 8.12146 28.0005 8.39425V15.061V25.0597C27.4288 25.268 26.9604 25.4876 26.6671 25.6374C23.3092 23.8871 20.9117 24.4824 19.3858 25.4516L16.9046 23.4681C15.65 22.4596 13.9599 22.2428 12.493 22.8997C10.1421 23.9595 7.91496 26.4171 6.39415 28.3946H0.666678C0.298182 28.3946 0 28.6928 0 29.0613C0 32.0021 2.39262 34.3947 5.33342 34.3947H34.6672C36.0917 34.3947 37.431 33.84 38.4388 32.8328C39.446 31.825 40.0007 30.4858 40.0007 29.0613C40.0007 28.6928 39.7025 28.3946 39.334 28.3946H35.6845C35.2262 26.654 34.3393 25.4696 33.0331 24.8828C31.8424 24.3473 30.5018 24.408 29.3338 24.6663V16.4093C29.859 16.6862 30.3842 16.8032 30.9015 16.8032ZM13.0399 24.1159C14.0458 23.6653 15.2073 23.8138 16.0706 24.5084L18.9349 26.7985C18.9361 26.7995 18.9366 26.8011 18.9378 26.8021L20.9312 28.3946H8.09258C9.46174 26.7292 11.2391 24.9277 13.0399 24.1159ZM37.4961 31.8901C36.7402 32.6453 35.7356 33.0613 34.6672 33.0613H5.33342C3.35487 33.0613 1.70706 31.6173 1.38869 29.7279H6.72016H22.8337H35.1607H38.6126C38.4765 30.5431 38.0918 31.2937 37.4961 31.8901ZM32.4895 26.1003C33.328 26.4779 33.9361 27.2481 34.3026 28.3946H23.0674L22.8937 28.2558L20.5061 26.3471C21.7763 25.7154 23.6854 25.4991 26.3429 26.9772C26.548 27.0912 26.7986 27.0886 27.0024 26.9707C27.0349 26.9518 30.272 25.0983 32.4895 26.1003ZM29.3338 9.74779C31.0917 10.6755 32.8469 9.7517 34.3105 8.98411C36.1523 8.01794 37.3763 7.47432 38.6673 8.67225V13.7068C36.9108 12.7817 35.1536 13.7023 33.6907 14.4705C31.8488 15.4373 30.6248 15.981 29.3338 14.783V9.74779Z" fill="white"/>
<path d="M8.63023 16.2264C9.1055 16.6053 9.33402 16.8065 9.33402 17.2264C9.33402 17.6509 9.10615 17.8521 8.63218 18.231C8.24936 18.537 7.81511 18.8847 7.58464 19.4595C7.44727 19.8007 7.61328 20.1894 7.95509 20.3261C8.03647 20.3593 8.12045 20.3743 8.20314 20.3743C8.46746 20.3743 8.71747 20.2161 8.82164 19.9556C8.9219 19.7069 9.17386 19.5051 9.46553 19.272C9.9727 18.8664 10.6674 18.3104 10.6674 17.2264C10.6674 16.1457 9.97074 15.5897 9.46162 15.1841C8.9844 14.8039 8.75523 14.602 8.75523 14.1769C8.75523 13.7537 8.98505 13.5525 9.46227 13.1723C9.85681 12.8585 10.3047 12.5024 10.532 11.9047C10.6628 11.561 10.4903 11.1756 10.1459 11.0447C9.80017 10.9119 9.41735 11.0857 9.28584 11.4308C9.18818 11.6866 8.93036 11.8917 8.63218 12.1293C8.12111 12.5356 7.42188 13.0922 7.42188 14.1769C7.42188 15.2629 8.12045 15.8202 8.63023 16.2264Z" fill="white"/>
<path d="M13.515 16.2271C13.9916 16.606 14.2207 16.8065 14.2207 17.2264C14.2207 17.6496 13.9922 17.8508 13.5169 18.2297C13.1322 18.5363 12.6966 18.884 12.4655 19.4595C12.3281 19.8007 12.4941 20.1894 12.8359 20.3261C12.9173 20.3593 13.0013 20.3743 13.084 20.3743C13.3483 20.3743 13.5983 20.2161 13.7025 19.9556C13.8028 19.7069 14.0554 19.5058 14.3483 19.272C14.8568 18.8664 15.5541 18.3111 15.5541 17.2264C15.5541 16.145 14.8549 15.589 14.3451 15.1834C13.8659 14.8032 13.6361 14.6014 13.6361 14.1769C13.6361 13.7537 13.8659 13.5525 14.3431 13.1723C14.7377 12.8585 15.1856 12.5024 15.4128 11.9047C15.5437 11.561 15.3711 11.1756 15.0267 11.0447C14.6817 10.9119 14.2982 11.0857 14.1667 11.4308C14.069 11.6866 13.8112 11.8917 13.513 12.1293C13.002 12.5356 12.3027 13.0922 12.3027 14.1769C12.3027 15.2635 13.0033 15.8202 13.515 16.2271Z" fill="white"/>
<path d="M18.5414 16.2459C19.0166 16.6248 19.2451 16.826 19.2451 17.2466C19.2451 17.6704 19.0173 17.8716 18.544 18.2498C18.1605 18.5571 17.7262 18.9041 17.4958 19.4797C17.3584 19.8215 17.5244 20.2095 17.8662 20.3462C17.9476 20.3794 18.0316 20.3944 18.1143 20.3944C18.3786 20.3944 18.6286 20.2362 18.7328 19.9758C18.833 19.7264 19.085 19.5246 19.3767 19.2915C19.8838 18.8859 20.5785 18.3299 20.5785 17.2466C20.5785 16.1652 19.8812 15.6092 19.3728 15.2036C18.8955 14.8233 18.6664 14.6215 18.6664 14.197C18.6664 13.7738 18.8955 13.5727 19.3734 13.1925C19.7679 12.878 20.2159 12.5219 20.4431 11.9242C20.5739 11.5804 20.4014 11.195 20.057 11.0642C19.712 10.9326 19.3278 11.1058 19.197 11.4502C19.0993 11.7061 18.8415 11.9112 18.5427 12.1495C18.0322 12.5557 17.333 13.1124 17.333 14.197C17.333 15.2823 18.0316 15.8396 18.5414 16.2459Z" fill="white"/>
</svg>
