<svg width="40" height="40" viewBox="0 0 40 40" fill="none" xmlns="http://www.w3.org/2000/svg">
<g id="mingcute:foot-line" clip-path="url(#clip0_125_315)">
<g id="Group">
<path id="Vector" d="M13.2667 12.095C15.595 10.35 18.8533 9.57669 22.0133 10.23C24.0867 10.66 26.4967 11.55 28.4083 13.55C30.3483 15.5784 31.5917 18.5567 31.665 22.7967C31.7283 26.4234 30.0133 30.33 27.7117 33.0167C26.5517 34.3717 25.1567 35.5217 23.6283 36.15C22.0667 36.795 20.3033 36.915 18.64 36.0534C17.1517 35.2834 16.1717 34.28 15.69 33.03C15.2267 31.8317 15.3183 30.6434 15.465 29.71L15.5317 29.325L15.72 28.375C15.8033 27.9584 15.8683 27.61 15.9017 27.2884C15.9683 26.65 15.8883 26.3167 15.735 26.0784C15.365 25.505 14.895 25.1617 14.2017 24.7117L13.2867 24.12L12.8433 23.8167C11.7933 23.065 10.68 21.995 10.22 20.085C9.41167 16.7434 10.9033 13.8684 13.2667 12.095ZM21.3383 13.495C19.0967 13.0317 16.8167 13.6 15.265 14.7617C13.7517 15.8967 13.0233 17.4967 13.46 19.3034C13.6667 20.1584 14.105 20.6317 14.8583 21.1584L15.3183 21.4634L16.1033 21.9634C16.9067 22.4917 17.8533 23.2134 18.5367 24.2734C19.2783 25.4234 19.32 26.6434 19.2167 27.6334C19.182 27.9546 19.1342 28.2743 19.0733 28.5917L18.81 29.925C18.7915 30.0259 18.7743 30.127 18.7583 30.2284C18.64 30.9817 18.6583 31.4617 18.7983 31.83C18.92 32.1434 19.22 32.6 20.1717 33.0934C20.7783 33.4067 21.4883 33.4284 22.355 33.07C23.255 32.6984 24.245 31.94 25.18 30.85C27.0683 28.645 28.38 25.5034 28.3317 22.855C28.27 19.265 27.2417 17.1534 25.9983 15.8534C24.73 14.525 23.0483 13.8484 21.3383 13.495ZM8.33333 5.83336C9.21739 5.83336 10.0652 6.18455 10.6904 6.80967C11.3155 7.43479 11.6667 8.28264 11.6667 9.16669C11.6667 10.0507 11.3155 10.8986 10.6904 11.5237C10.0652 12.1488 9.21739 12.5 8.33333 12.5C7.44928 12.5 6.60143 12.1488 5.97631 11.5237C5.35119 10.8986 5 10.0507 5 9.16669C5 8.28264 5.35119 7.43479 5.97631 6.80967C6.60143 6.18455 7.44928 5.83336 8.33333 5.83336ZM30.8333 7.50003C31.2754 7.50003 31.6993 7.67562 32.0118 7.98818C32.3244 8.30074 32.5 8.72466 32.5 9.16669C32.5 9.60872 32.3244 10.0326 32.0118 10.3452C31.6993 10.6578 31.2754 10.8334 30.8333 10.8334C30.3913 10.8334 29.9674 10.6578 29.6548 10.3452C29.3423 10.0326 29.1667 9.60872 29.1667 9.16669C29.1667 8.72466 29.3423 8.30074 29.6548 7.98818C29.9674 7.67562 30.3913 7.50003 30.8333 7.50003ZM15.8333 3.33336C16.1616 3.33336 16.4867 3.39802 16.79 3.52366C17.0934 3.6493 17.369 3.83345 17.6011 4.06559C17.8332 4.29774 18.0174 4.57334 18.143 4.87665C18.2687 5.17996 18.3333 5.50505 18.3333 5.83336C18.3333 6.16166 18.2687 6.48675 18.143 6.79007C18.0174 7.09338 17.8332 7.36898 17.6011 7.60113C17.369 7.83327 17.0934 8.01742 16.79 8.14306C16.4867 8.26869 16.1616 8.33336 15.8333 8.33336C15.1703 8.33336 14.5344 8.06997 14.0656 7.60113C13.5967 7.13228 13.3333 6.4964 13.3333 5.83336C13.3333 5.17032 13.5967 4.53443 14.0656 4.06559C14.5344 3.59675 15.1703 3.33336 15.8333 3.33336ZM24.1667 3.33336C24.495 3.33336 24.8201 3.39802 25.1234 3.52366C25.4267 3.6493 25.7023 3.83345 25.9344 4.06559C26.1666 4.29774 26.3507 4.57334 26.4764 4.87665C26.602 5.17996 26.6667 5.50505 26.6667 5.83336C26.6667 6.16166 26.602 6.48675 26.4764 6.79007C26.3507 7.09338 26.1666 7.36898 25.9344 7.60113C25.7023 7.83327 25.4267 8.01742 25.1234 8.14306C24.8201 8.26869 24.495 8.33336 24.1667 8.33336C23.5036 8.33336 22.8677 8.06997 22.3989 7.60113C21.9301 7.13228 21.6667 6.4964 21.6667 5.83336C21.6667 5.17032 21.9301 4.53443 22.3989 4.06559C22.8677 3.59675 23.5036 3.33336 24.1667 3.33336Z" fill="white"/>
</g>
</g>
<defs>
<clipPath id="clip0_125_315">
<rect width="40" height="40" fill="white"/>
</clipPath>
</defs>
</svg>
