<svg width="215" height="331" viewBox="0 0 215 331" fill="none" xmlns="http://www.w3.org/2000/svg">
<path d="M82.6726 87.0434C105.781 69.7243 138.12 62.0489 169.483 68.5333C190.061 72.801 213.98 81.6343 232.954 101.484C252.208 121.615 264.548 151.175 265.276 193.257C265.905 229.252 248.883 268.026 226.039 294.691C214.526 308.139 200.681 319.553 185.512 325.789C170.013 332.191 152.512 333.382 136.003 324.83C121.231 317.188 111.505 307.23 106.724 294.823C102.126 282.93 103.035 271.136 104.491 261.872L105.153 258.051L107.022 248.622C107.849 244.487 108.494 241.03 108.825 237.837C109.487 231.502 108.693 228.193 107.171 225.828C103.499 220.138 98.8338 216.73 91.9525 212.264L82.8711 206.392L78.4711 203.381C68.0498 195.921 57 185.301 52.4345 166.344C44.4118 133.178 59.2166 104.644 82.6726 87.0434ZM162.784 100.938C140.535 96.3398 117.906 101.981 102.506 113.51C87.4863 124.775 80.2576 140.655 84.5915 158.586C86.6426 167.072 90.9931 171.77 98.4699 176.997L103.035 180.024L110.827 184.987C118.8 190.23 128.195 197.393 134.977 207.913C142.338 219.327 142.752 231.436 141.726 241.261C141.383 244.45 140.908 247.623 140.304 250.773L137.69 264.006C137.507 265.008 137.336 266.011 137.177 267.017C136.003 274.494 136.185 279.258 137.574 282.913C138.782 286.023 141.759 290.556 151.205 295.452C157.226 298.562 164.273 298.777 172.874 295.22C181.807 291.531 191.633 284.005 200.912 273.187C219.654 251.302 232.672 220.121 232.193 193.836C231.581 158.206 221.375 137.247 209.034 124.345C196.446 111.161 179.756 104.445 162.784 100.938ZM33.7093 24.8964C42.4836 24.8964 50.8984 28.3819 57.1028 34.5862C63.3071 40.7906 66.7926 49.2054 66.7926 57.9797C66.7926 66.7539 63.3071 75.1688 57.1028 81.3731C50.8984 87.5775 42.4836 91.063 33.7093 91.063C24.9351 91.063 16.5202 87.5775 10.3159 81.3731C4.11153 75.1688 0.625977 66.7539 0.625977 57.9797C0.625977 49.2054 4.11153 40.7906 10.3159 34.5862C16.5202 28.3819 24.9351 24.8964 33.7093 24.8964ZM257.022 41.438C261.409 41.438 265.616 43.1808 268.719 46.283C271.821 49.3851 273.563 53.5926 273.563 57.9797C273.563 62.3668 271.821 66.5742 268.719 69.6764C265.616 72.7786 261.409 74.5214 257.022 74.5214C252.635 74.5214 248.427 72.7786 245.325 69.6764C242.223 66.5742 240.48 62.3668 240.48 57.9797C240.48 53.5926 242.223 49.3851 245.325 46.283C248.427 43.1808 252.635 41.438 257.022 41.438ZM108.147 0.0838623C111.405 0.0838623 114.632 0.725658 117.642 1.9726C120.653 3.21955 123.388 5.04722 125.692 7.35128C127.996 9.65533 129.824 12.3906 131.071 15.401C132.318 18.4114 132.959 21.6379 132.959 24.8964C132.959 28.1548 132.318 31.3813 131.071 34.3917C129.824 37.4021 127.996 40.1374 125.692 42.4415C123.388 44.7455 120.653 46.5732 117.642 47.8201C114.632 49.0671 111.405 49.7089 108.147 49.7089C101.566 49.7089 95.255 47.0947 90.6017 42.4415C85.9485 37.7882 83.3343 31.477 83.3343 24.8964C83.3343 18.3157 85.9485 12.0045 90.6017 7.35128C95.255 2.69803 101.566 0.0838624 108.147 0.0838623ZM190.855 0.0838623C194.114 0.0838623 197.34 0.725658 200.35 1.9726C203.361 3.21955 206.096 5.04722 208.4 7.35128C210.704 9.65533 212.532 12.3906 213.779 15.401C215.026 18.4114 215.668 21.6379 215.668 24.8964C215.668 28.1548 215.026 31.3813 213.779 34.3917C212.532 37.4021 210.704 40.1374 208.4 42.4415C206.096 44.7455 203.361 46.5732 200.35 47.8201C197.34 49.0671 194.114 49.7089 190.855 49.7089C184.274 49.7089 177.963 47.0947 173.31 42.4415C168.657 37.7882 166.043 31.477 166.043 24.8964C166.043 18.3157 168.657 12.0045 173.31 7.35128C177.963 2.69803 184.274 0.0838624 190.855 0.0838623Z" fill="white" fill-opacity="0.8"/>
</svg>
