<svg width="35" height="31" viewBox="0 0 35 31" fill="none" xmlns="http://www.w3.org/2000/svg">
<path d="M33.5481 17.1694C33.607 16.9741 33.6455 16.7726 33.6455 16.5648C33.6455 15.5965 32.9799 14.784 32.083 14.5512V6.14809H31.0413V13.2007C30.7346 13.0226 30.3794 12.9189 29.9997 12.9189C29.9278 12.9189 29.8564 12.9226 29.7856 12.9299C29.3804 11.9934 28.446 11.3564 27.3955 11.3564C26.345 11.3564 25.4106 11.9934 25.0054 12.9299C24.9346 12.9226 24.8632 12.9189 24.7913 12.9189C23.8033 12.9189 22.9742 13.6101 22.7611 14.5345C21.8367 14.7476 21.1455 15.5773 21.1455 16.5648C21.1455 16.7741 21.1846 16.9778 21.2445 17.1747C20.8736 17.5476 20.6434 18.0658 20.6314 18.6481H1.87467V1.98142H31.0413V3.02309H32.083V1.46059C32.083 1.17257 31.8497 0.939758 31.5622 0.939758H1.35384C1.06634 0.939758 0.833008 1.17257 0.833008 1.46059V21.2523C0.833008 21.5403 1.06634 21.7731 1.35384 21.7731H13.333V22.8148H12.8122C11.3762 22.8148 10.208 23.983 10.208 25.4189C10.208 25.7069 10.4413 25.9398 10.7288 25.9398H21.3169L21.6689 29.6351C21.6939 29.9023 21.9184 30.1064 22.1872 30.1064H32.6038C32.8726 30.1064 33.0971 29.9023 33.1226 29.6351L34.1663 18.6481C34.1663 18.07 33.9294 17.547 33.5481 17.1694ZM22.1872 16.5648C22.1872 15.9903 22.6544 15.5231 23.2288 15.5231C23.5163 15.5231 23.7497 15.2903 23.7497 15.0023C23.7497 14.4278 24.2169 13.9606 24.7913 13.9606C24.921 13.9606 25.0455 13.984 25.1507 14.0288C25.2945 14.0892 25.458 14.0825 25.5965 14.0101C25.7346 13.9366 25.833 13.8054 25.8637 13.6523C26.0111 12.9257 26.6554 12.3981 27.3955 12.3981C28.1356 12.3981 28.7799 12.9257 28.9268 13.6523C28.958 13.8054 29.0559 13.9366 29.1939 14.0101C29.3325 14.0825 29.4955 14.0892 29.6398 14.0288C29.7455 13.984 29.87 13.9606 29.9997 13.9606C30.5742 13.9606 31.0413 14.4278 31.0413 15.0023C31.0413 15.2903 31.2747 15.5231 31.5622 15.5231C32.1367 15.5231 32.6038 15.9903 32.6038 16.5648C32.6038 16.5892 32.5992 16.6127 32.5971 16.6366C32.432 16.5944 32.2617 16.5648 32.083 16.5648C31.458 16.5648 30.9028 16.847 30.5205 17.2845C30.1382 16.847 29.583 16.5648 28.958 16.5648C28.333 16.5648 27.7778 16.847 27.3955 17.2845C27.0132 16.847 26.458 16.5648 25.833 16.5648C25.208 16.5648 24.6528 16.847 24.2705 17.2845C23.8882 16.847 23.333 16.5648 22.708 16.5648C22.5294 16.5648 22.359 16.5944 22.1939 16.6372C22.1919 16.6127 22.1872 16.5892 22.1872 16.5648ZM20.92 21.7731L21.0356 22.9898C20.7419 22.8773 20.4278 22.8148 20.1038 22.8148H19.583V21.7731H20.92ZM1.87467 19.6898H20.7215L20.8205 20.7314H1.87467V19.6898ZM14.3747 21.7731H18.5413V22.8148H14.3747V21.7731ZM11.3387 24.8981C11.5538 24.2918 12.133 23.8564 12.8122 23.8564H20.1038C20.5012 23.8564 20.8715 24.0127 21.1585 24.2783L21.2174 24.8981H11.3387ZM21.6663 18.6481C21.6663 18.0736 22.1335 17.6064 22.708 17.6064C23.2825 17.6064 23.7497 18.0736 23.7497 18.6481V29.0648H22.6606L21.6663 18.6481ZM24.7913 18.6481C24.7913 18.0736 25.2585 17.6064 25.833 17.6064C26.4075 17.6064 26.8747 18.0736 26.8747 18.6481V29.0648H24.7913V18.6481ZM27.9163 18.6481C27.9163 18.0736 28.3835 17.6064 28.958 17.6064C29.5325 17.6064 29.9997 18.0736 29.9997 18.6481V29.0648H27.9163V18.6481ZM32.1304 29.0648H31.0413V18.6481C31.0413 18.0736 31.5085 17.6064 32.083 17.6064C32.6575 17.6064 33.1247 18.0736 33.1268 18.5986L32.1304 29.0648Z" fill="white"/>
</svg>
