<svg width="25" height="25" viewBox="0 0 25 25" fill="none" xmlns="http://www.w3.org/2000/svg">
<g id="majesticons:calendar">
<g id="Group">
<path id="Vector" d="M4.5 7.95007V9.95007H20.5V7.95007C20.5 7.41964 20.2893 6.91093 19.9142 6.53586C19.5391 6.16079 19.0304 5.95007 18.5 5.95007H6.5C5.96957 5.95007 5.46086 6.16079 5.08579 6.53586C4.71071 6.91093 4.5 7.41964 4.5 7.95007Z" fill="white"/>
<path id="Vector_2" d="M16.5 5.95007H18.5C19.0304 5.95007 19.5391 6.16079 19.9142 6.53586C20.2893 6.91093 20.5 7.41964 20.5 7.95007V9.95007H4.5V7.95007C4.5 7.41964 4.71071 6.91093 5.08579 6.53586C5.46086 6.16079 5.96957 5.95007 6.5 5.95007H8.5M16.5 5.95007V3.95007M16.5 5.95007H8.5M8.5 5.95007V3.95007M4.5 10.4501V19.9501C4.5 20.4805 4.71071 20.9892 5.08579 21.3643C5.46086 21.7394 5.96957 21.9501 6.5 21.9501H18.5C19.0304 21.9501 19.5391 21.7394 19.9142 21.3643C20.2893 20.9892 20.5 20.4805 20.5 19.9501V10.4501" stroke="white" stroke-width="2" stroke-linecap="round" stroke-linejoin="round"/>
</g>
</g>
</svg>
