<svg width="25" height="24" viewBox="0 0 25 24" fill="none" xmlns="http://www.w3.org/2000/svg">
<g id="mdi:instagram">
<path id="Vector" d="M16.7 2H8.3C5.1 2 2.5 4.6 2.5 7.8V16.2C2.5 17.7383 3.11107 19.2135 4.19878 20.3012C5.28649 21.3889 6.76174 22 8.3 22H16.7C19.9 22 22.5 19.4 22.5 16.2V7.8C22.5 6.26174 21.8889 4.78649 20.8012 3.69878C19.7135 2.61107 18.2383 2 16.7 2ZM16.9 4C17.8548 4 18.7705 4.37928 19.4456 5.05442C20.1207 5.72955 20.5 6.64522 20.5 7.6V16.4C20.5 18.39 18.89 20 16.9 20H8.1C7.14522 20 6.22955 19.6207 5.55441 18.9456C4.87928 18.2705 4.5 17.3548 4.5 16.4V7.6C4.5 5.61 6.11 4 8.1 4H16.9ZM7.25 5.5C6.91848 5.5 6.60054 5.6317 6.36612 5.86612C6.13169 6.10054 6 6.41848 6 6.75C6 7.08152 6.13169 7.39946 6.36612 7.63388C6.60054 7.8683 6.91848 8 7.25 8C7.58152 8 7.89946 7.8683 8.13388 7.63388C8.36831 7.39946 8.5 7.08152 8.5 6.75C8.5 6.41848 8.36831 6.10054 8.13388 5.86612C7.89946 5.6317 7.58152 5.5 7.25 5.5ZM12.5 7C11.1739 7 9.90215 7.52678 8.96447 8.46447C8.02678 9.40215 7.5 10.6739 7.5 12C7.5 13.3261 8.02678 14.5979 8.96447 15.5355C9.90215 16.4732 11.1739 17 12.5 17C13.8261 17 15.0979 16.4732 16.0355 15.5355C16.9732 14.5979 17.5 13.3261 17.5 12C17.5 10.6739 16.9732 9.40215 16.0355 8.46447C15.0979 7.52678 13.8261 7 12.5 7ZM12.5 9C13.2956 9 14.0587 9.31607 14.6213 9.87868C15.1839 10.4413 15.5 11.2044 15.5 12C15.5 12.7956 15.1839 13.5587 14.6213 14.1213C14.0587 14.6839 13.2956 15 12.5 15C11.7044 15 10.9413 14.6839 10.3787 14.1213C9.81607 13.5587 9.5 12.7956 9.5 12C9.5 11.2044 9.81607 10.4413 10.3787 9.87868C10.9413 9.31607 11.7044 9 12.5 9Z" fill="white"/>
</g>
</svg>
