<svg width="24" height="25" viewBox="0 0 24 25" fill="none" xmlns="http://www.w3.org/2000/svg">
<g id="mdi:medal-outline">
<path id="Vector" d="M14.94 20.4501L12 18.7201L9.06001 20.4501L9.84001 17.1101L7.25001 14.8701L10.66 14.5801L12 11.4501L13.34 14.5801L16.75 14.8701L14.16 17.1101M20 2.95007H4.00001V4.95007L8.86001 8.59007C7.16442 9.31366 5.77077 10.6006 4.91475 12.2334C4.05873 13.8661 3.79287 15.7444 4.16215 17.5506C4.53143 19.3567 5.51317 20.9799 6.94135 22.1457C8.36952 23.3114 10.1565 23.9481 12 23.9481C13.8435 23.9481 15.6305 23.3114 17.0587 22.1457C18.4869 20.9799 19.4686 19.3567 19.8379 17.5506C20.2071 15.7444 19.9413 13.8661 19.0853 12.2334C18.2293 10.6006 16.8356 9.31366 15.14 8.59007L20 4.95007M18 15.9501C18.0005 17.0863 17.6784 18.1994 17.0711 19.1598C16.4638 20.1201 15.5962 20.8883 14.5694 21.3749C13.5426 21.8615 12.3987 22.0465 11.2709 21.9084C10.143 21.7703 9.07757 21.3148 8.19847 20.5949C7.31937 19.875 6.66277 18.9202 6.30507 17.8417C5.94737 16.7632 5.90327 15.6053 6.1779 14.5027C6.45253 13.4001 7.03461 12.3982 7.85641 11.6135C8.6782 10.8288 9.70593 10.2935 10.82 10.0701C11.5986 9.91113 12.4014 9.91113 13.18 10.0701C14.5389 10.3427 15.7616 11.0773 16.6402 12.1492C17.5189 13.2211 17.9994 14.5641 18 15.9501ZM12.63 7.95007H11.37L7.37001 4.95007H16.71L12.63 7.95007Z" fill="white"/>
</g>
</svg>
