<svg width="41" height="41" viewBox="0 0 41 41" fill="none" xmlns="http://www.w3.org/2000/svg">
<g id="mingcute:foot-line" clip-path="url(#clip0_125_278)">
<g id="Group">
<path id="Vector" d="M14.1553 12.5949C16.4837 10.8499 19.742 10.0766 22.902 10.7299C24.9753 11.1599 27.3853 12.0499 29.297 14.0499C31.237 16.0783 32.4803 19.0566 32.5537 23.2966C32.617 26.9233 30.902 30.8299 28.6003 33.5166C27.4403 34.8716 26.0453 36.0216 24.517 36.6499C22.9553 37.2949 21.192 37.4149 19.5287 36.5532C18.0403 35.7833 17.0603 34.7799 16.5787 33.5299C16.1153 32.3316 16.207 31.1433 16.3537 30.2099L16.4203 29.8249L16.6087 28.8749C16.692 28.4583 16.757 28.1099 16.7903 27.7882C16.857 27.1499 16.777 26.8166 16.6237 26.5783C16.2537 26.0049 15.7837 25.6616 15.0903 25.2116L14.1753 24.6199L13.732 24.3166C12.682 23.5649 11.5687 22.4949 11.1087 20.5849C10.3003 17.2433 11.792 14.3683 14.1553 12.5949ZM22.227 13.9949C19.9853 13.5316 17.7053 14.0999 16.1537 15.2616C14.6403 16.3966 13.912 17.9966 14.3487 19.8033C14.5553 20.6583 14.9937 21.1316 15.747 21.6583L16.207 21.9633L16.992 22.4633C17.7953 22.9916 18.742 23.7133 19.4253 24.7733C20.167 25.9233 20.2087 27.1433 20.1053 28.1333C20.0707 28.4545 20.0229 28.7742 19.962 29.0916L19.6987 30.4249C19.6802 30.5258 19.663 30.6269 19.647 30.7283C19.5287 31.4816 19.547 31.9616 19.687 32.3299C19.8087 32.6433 20.1087 33.0999 21.0603 33.5933C21.667 33.9066 22.377 33.9282 23.2437 33.5699C24.1437 33.1982 25.1337 32.4399 26.0687 31.3499C27.957 29.1449 29.2687 26.0033 29.2203 23.3549C29.1587 19.7649 28.1303 17.6533 26.887 16.3533C25.6187 15.0249 23.937 14.3483 22.227 13.9949ZM9.22201 6.33325C10.1061 6.33325 10.9539 6.68444 11.579 7.30956C12.2041 7.93468 12.5553 8.78253 12.5553 9.66658C12.5553 10.5506 12.2041 11.3985 11.579 12.0236C10.9539 12.6487 10.1061 12.9999 9.22201 12.9999C8.33795 12.9999 7.4901 12.6487 6.86498 12.0236C6.23986 11.3985 5.88867 10.5506 5.88867 9.66658C5.88867 8.78253 6.23986 7.93468 6.86498 7.30956C7.4901 6.68444 8.33795 6.33325 9.22201 6.33325ZM31.722 7.99992C32.164 7.99992 32.588 8.17551 32.9005 8.48807C33.2131 8.80063 33.3887 9.22456 33.3887 9.66658C33.3887 10.1086 33.2131 10.5325 32.9005 10.8451C32.588 11.1577 32.164 11.3333 31.722 11.3333C31.28 11.3333 30.8561 11.1577 30.5435 10.8451C30.2309 10.5325 30.0553 10.1086 30.0553 9.66658C30.0553 9.22456 30.2309 8.80063 30.5435 8.48807C30.8561 8.17551 31.28 7.99992 31.722 7.99992ZM16.722 3.83325C17.0503 3.83325 17.3754 3.89792 17.6787 4.02355C17.982 4.14919 18.2576 4.33334 18.4898 4.56549C18.7219 4.79763 18.9061 5.07323 19.0317 5.37654C19.1573 5.67986 19.222 6.00495 19.222 6.33325C19.222 6.66156 19.1573 6.98665 19.0317 7.28996C18.9061 7.59327 18.7219 7.86887 18.4898 8.10102C18.2576 8.33317 17.982 8.51731 17.6787 8.64295C17.3754 8.76859 17.0503 8.83325 16.722 8.83325C16.059 8.83325 15.4231 8.56986 14.9542 8.10102C14.4854 7.63218 14.222 6.99629 14.222 6.33325C14.222 5.67021 14.4854 5.03433 14.9542 4.56549C15.4231 4.09664 16.059 3.83325 16.722 3.83325ZM25.0553 3.83325C25.3836 3.83325 25.7087 3.89792 26.012 4.02355C26.3154 4.14919 26.591 4.33334 26.8231 4.56549C27.0553 4.79763 27.2394 5.07323 27.365 5.37654C27.4907 5.67986 27.5553 6.00495 27.5553 6.33325C27.5553 6.66156 27.4907 6.98665 27.365 7.28996C27.2394 7.59327 27.0553 7.86887 26.8231 8.10102C26.591 8.33317 26.3154 8.51731 26.012 8.64295C25.7087 8.76859 25.3836 8.83325 25.0553 8.83325C24.3923 8.83325 23.7564 8.56986 23.2876 8.10102C22.8187 7.63218 22.5553 6.99629 22.5553 6.33325C22.5553 5.67021 22.8187 5.03433 23.2876 4.56549C23.7564 4.09664 24.3923 3.83325 25.0553 3.83325Z" fill="#0C0C0C"/>
</g>
</g>
<defs>
<clipPath id="clip0_125_278">
<rect width="40" height="40" fill="white" transform="translate(0.5 0.5)"/>
</clipPath>
</defs>
</svg>
