<svg width="57" height="68" viewBox="0 0 57 68" fill="none" xmlns="http://www.w3.org/2000/svg">
<path opacity="0.1" d="M65.1128 21.0049C61.6755 12.7055 55.2756 6.31841 46.9799 2.88381C38.6842 -0.55078 29.6431 -0.556696 21.3445 2.88396C13.0706 6.25953 6.65796 12.7211 3.22336 21.0168C-0.211228 29.3125 -0.217143 38.3536 3.22352 46.6522C6.6608 54.9516 13.0607 61.3388 21.3563 64.7734C29.652 68.208 38.6932 68.2139 46.9918 64.7732C55.2912 61.3359 61.7047 54.8723 65.1129 46.6404C68.5211 38.4085 68.5791 29.2416 65.1128 21.0049ZM49.2707 55.4781L38.8846 31.8211L47.4991 11.0213C55.3197 15.6033 60.1967 23.6779 60.5621 32.7233C60.9009 41.8324 56.6455 50.3085 49.2707 55.4781ZM27.4373 59.2952L35.0725 40.8536L42.9362 58.6855C37.9262 60.496 32.6144 60.69 27.4373 59.2952ZM28.5631 38.1586L20.929 56.5976C16.345 53.9512 12.7504 49.9974 10.4607 45.237L28.5631 38.1586ZM40.9254 8.29968L32.3134 29.1005L8.24446 38.4924C6.61947 29.5996 9.66408 20.6193 16.3188 14.4803C22.9333 8.25001 32.0929 5.98657 40.9254 8.29968Z" fill="black"/>
</svg>
