<svg width="59" height="73" viewBox="0 0 59 73" fill="none" xmlns="http://www.w3.org/2000/svg">
<g opacity="0.1">
<path d="M28.282 23.4683L27.3976 23.2103L26.8782 23.9712C23.8685 28.3801 21.9351 33.2811 21.1252 38.5599L20.9853 39.4714L21.809 39.8861C22.0895 40.0273 22.4052 40.1863 22.741 40.3553C24.0146 40.9967 25.5768 41.7833 26.5999 42.297C27.4674 42.7371 28.0245 43.6085 28.0616 44.5652L28.0619 44.5715C28.198 47.6791 28.8485 50.5871 30.0397 53.2762L30.0434 53.2846C30.3344 53.9289 30.3567 54.6652 30.105 55.3279C29.8489 55.9964 29.3353 56.5305 28.6928 56.8094L28.6862 56.8123C26.6346 57.717 23.418 59.1137 21.4305 59.9767C20.1326 60.5403 18.6216 59.9916 17.9874 58.7254L17.9869 58.7243L17.0241 56.8066L17.02 56.7984L17.0184 56.7948L17.0102 56.7761C8.83463 37.9478 17.4826 16.026 36.3108 7.8504L36.3296 7.84229L36.3331 7.84079L36.3418 7.83758L38.3546 7.09366L38.3557 7.09325C39.6835 6.60108 41.1622 7.23179 41.7258 8.52963L44.9063 15.8544C45.4884 17.2 44.8754 18.7562 43.5606 19.3402L43.5605 19.3401L43.5485 19.3456C40.8291 20.5876 38.3346 22.2967 36.0377 24.3917L36.0354 24.3938C35.3468 25.0249 34.379 25.2495 33.487 24.989L33.4859 24.9887C32.7097 24.7627 31.6271 24.4461 30.5671 24.1361C29.7396 23.8941 28.9257 23.6561 28.282 23.4683ZM26.2377 22.6706C26.649 22.114 27.3648 21.8734 28.0282 22.0683L28.0284 22.0684C29.3472 22.4573 32.2434 23.3047 33.8411 23.7688C34.2621 23.8922 34.7802 23.821 35.1715 23.4617L35.1766 23.4571C37.6087 21.2421 40.2124 19.475 43.0112 18.1977L43.0112 18.1977L43.0112 18.1977L43.0113 18.1976L43.0113 18.1976L43.0113 18.1976L43.0113 18.1976L43.0114 18.1976L43.0114 18.1976L43.0114 18.1976L43.0115 18.1976L43.0115 18.1975L43.0115 18.1975L43.0115 18.1975L43.0116 18.1975L43.0116 18.1975L43.0116 18.1975L43.0117 18.1975L43.0117 18.1975L43.0117 18.1974L43.0117 18.1974L43.0118 18.1974L43.0118 18.1974L43.0118 18.1974L43.0119 18.1974L43.0119 18.1974L43.0119 18.1974L43.0119 18.1973L43.012 18.1973L43.012 18.1973L43.012 18.1973L43.0121 18.1973L43.0121 18.1973L43.0121 18.1973L43.0121 18.1973L43.0122 18.1972L43.0122 18.1972L43.0122 18.1972L43.0123 18.1972L43.0123 18.1972L43.0123 18.1972L43.0124 18.1972L43.0124 18.1972L43.0124 18.1971L43.0124 18.1971L43.0125 18.1971L43.0125 18.1971L43.0125 18.1971L43.0126 18.1971L43.0126 18.1971L43.0126 18.1971L43.0126 18.197L43.0127 18.197L43.0127 18.197L43.0127 18.197L43.0127 18.197L43.0128 18.197L43.0128 18.197L43.0128 18.197L43.0129 18.1969L43.0129 18.1969L43.0129 18.1969L43.0129 18.1969L43.013 18.1969L43.013 18.1969L43.013 18.1969L43.0131 18.1969L43.0131 18.1969L43.0131 18.1968L43.0131 18.1968L43.0132 18.1968L43.0132 18.1968L43.0132 18.1968L43.0133 18.1968L43.0133 18.1968L43.0133 18.1968L43.0133 18.1967L43.0134 18.1967L43.0134 18.1967L43.0134 18.1967L43.0135 18.1967L43.0135 18.1967L43.0135 18.1967L43.0135 18.1967L43.0136 18.1966L43.0136 18.1966L43.0136 18.1966L43.0137 18.1966L43.0137 18.1966L43.0137 18.1966L43.0137 18.1966L43.0138 18.1966L43.0138 18.1965L43.0138 18.1965L43.0138 18.1965L43.0139 18.1965L43.0139 18.1965L43.0139 18.1965L43.014 18.1965L43.014 18.1965L43.014 18.1964L43.014 18.1964L43.0141 18.1964L43.0141 18.1964L43.0141 18.1964L43.0142 18.1964L43.0142 18.1964L43.0142 18.1964L43.0142 18.1964L43.0143 18.1963L43.0143 18.1963L43.0143 18.1963L43.0143 18.1963L43.0144 18.1963L43.0144 18.1963L43.0144 18.1963L43.0145 18.1963L43.0145 18.1962L43.0145 18.1962L43.0145 18.1962L43.0146 18.1962L43.0146 18.1962L43.0146 18.1962L43.0147 18.1962L43.0147 18.1962L43.0147 18.1961L43.0147 18.1961L43.0148 18.1961L43.0148 18.1961L43.0148 18.1961L43.0148 18.1961L43.0149 18.1961L43.0149 18.1961L43.0149 18.1961L43.015 18.196L43.015 18.196L43.015 18.196L43.015 18.196L43.0151 18.196L43.0151 18.196L43.0151 18.196L43.0151 18.196L43.0152 18.1959L43.0152 18.1959L43.0152 18.1959L43.0153 18.1959L43.0153 18.1959L43.0153 18.1959L43.0153 18.1959L43.0154 18.1959L43.0154 18.1959L43.0154 18.1958L43.0154 18.1958L43.0155 18.1958L43.0155 18.1958L43.0155 18.1958L43.0156 18.1958L43.0156 18.1958L43.0156 18.1958L43.0156 18.1957L43.0157 18.1957L43.0157 18.1957L43.0157 18.1957L43.0157 18.1957L43.0158 18.1957L43.0158 18.1957L43.0158 18.1957L43.0159 18.1956L43.0159 18.1956L43.0159 18.1956L43.0159 18.1956L43.016 18.1956L43.016 18.1956L43.016 18.1956L43.0161 18.1956L43.0161 18.1956L43.0161 18.1955L43.0161 18.1955L43.0162 18.1955L43.0162 18.1955L43.0162 18.1955L43.0162 18.1955L43.0163 18.1955L43.0163 18.1955L43.0163 18.1954L43.0164 18.1954L43.0164 18.1954L43.0164 18.1954L43.0164 18.1954L43.0165 18.1954L43.0165 18.1954L43.0165 18.1954L43.0165 18.1954L43.0166 18.1953L43.0166 18.1953L43.0166 18.1953L43.0167 18.1953L43.0167 18.1953L43.0167 18.1953L43.0167 18.1953L43.0168 18.1953L43.0168 18.1952L43.0376 18.1862L43.058 18.1765C43.7007 17.8697 44.0574 17.0863 43.7414 16.3584L40.5615 9.03518C40.2621 8.34559 39.4903 8.04129 38.8225 8.2722L38.8092 8.2768L38.796 8.28168L39.2372 9.47182L38.796 8.28169L38.7959 8.28172L38.7956 8.28182L38.7946 8.28221L38.7904 8.28377L38.7739 8.28986L38.7116 8.31296L38.4892 8.39545L37.8131 8.6462C37.7542 8.66805 37.6935 8.69056 37.6323 8.71325C37.2256 8.86404 36.7986 9.02238 36.7558 9.04096L36.7537 9.0419C18.6278 16.9526 10.3032 38.0703 18.1535 56.2222L18.1676 56.2549L18.1836 56.2868L19.1205 58.1577L19.1268 58.1702L19.1334 58.1827C19.4637 58.8073 20.2353 59.1119 20.9249 58.8125L20.9285 58.8109C22.9079 57.9514 26.1175 56.5578 28.1715 55.652L28.1779 55.6492C28.5073 55.5062 28.7775 55.2354 28.9145 54.8881C29.0702 54.4933 29.0173 54.1086 28.8949 53.8268L28.8949 53.8268L28.8949 53.8267L28.8949 53.8267L28.8949 53.8266L28.8948 53.8266L28.8948 53.8266L28.8948 53.8265L28.8948 53.8265L28.8948 53.8264L28.8947 53.8264L28.8947 53.8263L28.8947 53.8263L28.8947 53.8263L28.8947 53.8262L28.8947 53.8262L28.8946 53.8261L28.8946 53.8261L28.8946 53.8261L28.8946 53.826L28.8946 53.826L28.8945 53.8259L28.8945 53.8259L28.8945 53.8258L28.8945 53.8258L28.8945 53.8258L28.8945 53.8257L28.8944 53.8257L28.8944 53.8256L28.8944 53.8256L28.8944 53.8256L28.8944 53.8255L28.8943 53.8255L28.8943 53.8254L28.8943 53.8254L28.8943 53.8253L28.8943 53.8253L28.8943 53.8253L28.8942 53.8252L28.8942 53.8252L28.8942 53.8251L28.8942 53.8251L28.8942 53.825L28.8941 53.825L28.8941 53.825L28.8941 53.8249L28.8941 53.8249L28.8941 53.8248L28.894 53.8248L28.894 53.8247L28.894 53.8247L28.894 53.8247L28.894 53.8246L28.894 53.8246L28.8939 53.8245L28.8939 53.8245L28.8939 53.8244L28.8939 53.8244L28.8939 53.8243L28.8938 53.8243L28.8938 53.8243L28.8938 53.8242L28.8938 53.8242L28.8938 53.8241L28.8937 53.8241L28.8937 53.824L28.8937 53.824L28.8937 53.824L28.8937 53.8239L28.8937 53.8239L28.8936 53.8238L28.8936 53.8238L28.8936 53.8237L28.8936 53.8237L28.8936 53.8236L28.8935 53.8236L28.8935 53.8236L28.8935 53.8235L28.8935 53.8235L28.8935 53.8234L28.8934 53.8234L28.8934 53.8233L28.8934 53.8233L28.8934 53.8232L28.8934 53.8232L28.8933 53.8232L28.8933 53.8231L28.8933 53.8231L28.8933 53.823L28.8933 53.823L28.8932 53.8229L28.8932 53.8229L28.8932 53.8228L28.8932 53.8228L28.8932 53.8228L28.8931 53.8227L28.8931 53.8227L28.8931 53.8226L28.8931 53.8226L28.8931 53.8225L28.893 53.8225L28.893 53.8224L28.893 53.8224L28.893 53.8223L28.893 53.8223L28.893 53.8223L28.8929 53.8222L28.8929 53.8222L28.8929 53.8221L28.8929 53.8221L28.8929 53.822L28.8928 53.822L28.8928 53.8219L28.8928 53.8219L28.8928 53.8218L28.8928 53.8218L28.8927 53.8218L28.8927 53.8217L28.8927 53.8217L28.8927 53.8216L28.8927 53.8216L28.8926 53.8215L28.8926 53.8215L28.8926 53.8214L28.8926 53.8214L28.8926 53.8213L28.8925 53.8213L28.8925 53.8212L28.8925 53.8212L28.8925 53.8212L28.8925 53.8211L28.8924 53.8211L28.8924 53.821L28.8924 53.821L28.8924 53.8209L28.8924 53.8209L28.8923 53.8208L28.8923 53.8208L28.8923 53.8207L28.8923 53.8207L28.8923 53.8206L28.8922 53.8206L28.8922 53.8206L28.8922 53.8205L28.8922 53.8205L28.8922 53.8204L28.8921 53.8204L28.8921 53.8203L28.8921 53.8203L28.8921 53.8202L28.8921 53.8202L28.892 53.8201L28.892 53.8201L28.892 53.82L28.892 53.82L28.892 53.8199L28.8919 53.8199L28.8919 53.8199L28.8919 53.8198L28.8919 53.8198L28.8918 53.8197L28.8918 53.8197L28.8918 53.8196L28.8918 53.8196L28.8918 53.8195L28.8917 53.8195L28.8917 53.8194L28.8917 53.8194L28.8917 53.8193L28.8917 53.8193L28.8916 53.8192L28.8916 53.8192L28.8916 53.8192L28.8916 53.8191L28.8916 53.8191L28.8915 53.819L28.8915 53.819L28.8915 53.8189L28.8915 53.8189L28.8915 53.8188L28.8914 53.8188L28.8914 53.8187L28.8914 53.8187L28.8914 53.8186L28.8914 53.8186L28.8913 53.8185L28.8913 53.8185L28.8913 53.8184L28.8913 53.8184L28.8913 53.8184L28.8912 53.8183L28.8912 53.8183L28.8912 53.8182L28.8912 53.8182L28.8912 53.8181L28.8911 53.8181L28.8911 53.818L28.8911 53.818L28.8911 53.8179L28.8911 53.8179L28.891 53.8178L28.891 53.8178L28.891 53.8177L28.891 53.8177L28.8909 53.8176L28.8909 53.8176L28.8909 53.8175L28.8909 53.8175L28.8909 53.8175L28.8908 53.8174L28.8908 53.8174L28.8908 53.8173L28.8908 53.8173L28.8908 53.8172L28.8907 53.8172L28.8907 53.8171L28.8907 53.8171L28.8907 53.817L28.8907 53.817L28.8906 53.8169L28.8906 53.8169L28.8906 53.8168L28.8906 53.8168L28.8906 53.8167L28.8905 53.8167L28.8905 53.8166L28.8905 53.8166L28.8905 53.8165L28.8905 53.8165L28.8904 53.8165L28.8904 53.8164L28.8904 53.8164L28.8904 53.8163L28.8903 53.8163L28.8903 53.8162L28.8903 53.8162L28.8903 53.8161L28.8903 53.8161L28.8902 53.816L28.8902 53.816L28.8902 53.8159L28.8902 53.8159L28.8902 53.8158L28.8901 53.8158L28.8901 53.8157L28.8901 53.8157L28.8901 53.8156L28.8901 53.8156L28.89 53.8155L28.89 53.8155L28.89 53.8154L28.89 53.8154L28.89 53.8154L28.8899 53.8153L28.8899 53.8153L28.8899 53.8152L28.8899 53.8152L28.8899 53.8151L28.8898 53.8151L28.8898 53.815L28.8898 53.815L28.8898 53.8149L28.8897 53.8149L28.8897 53.8148L28.8897 53.8148L28.8897 53.8147L28.8897 53.8147L28.8896 53.8146L28.8896 53.8146L28.8896 53.8145L28.8896 53.8145L28.8896 53.8144L28.8895 53.8144L28.8895 53.8144L28.8895 53.8143L28.8895 53.8143L28.8895 53.8142L28.8894 53.8142L28.8894 53.8141L28.8894 53.8141L28.8894 53.814L28.8894 53.814L28.8893 53.8139L28.8893 53.8139L28.8893 53.8138L28.8893 53.8138L28.8893 53.8137L28.8892 53.8137L28.8892 53.8136L28.8892 53.8136L28.8892 53.8135L28.8891 53.8135L28.8891 53.8134L28.8891 53.8134L28.8891 53.8133L28.8891 53.8133L28.889 53.8133L28.889 53.8132L28.889 53.8132L28.889 53.8131L28.889 53.8131L28.8889 53.813L28.8889 53.813L28.8889 53.8129L28.8889 53.8129L28.8889 53.8128L28.8888 53.8128L28.8888 53.8127L28.8888 53.8127L28.8888 53.8126L28.8888 53.8126L28.8887 53.8125L28.8887 53.8125L28.8887 53.8124L28.8887 53.8124L28.8887 53.8124L28.8886 53.8123L28.8886 53.8123L28.8886 53.8122L28.8886 53.8122L28.8885 53.8121L28.8885 53.8121L28.8885 53.812L28.8885 53.812L28.8885 53.8119L28.8884 53.8119L28.8884 53.8118L28.8884 53.8118L28.8884 53.8117L28.8884 53.8117L28.8883 53.8116L28.8883 53.8116L28.8883 53.8115L28.8883 53.8115L28.8883 53.8115L28.8882 53.8114L28.8882 53.8114L28.8882 53.8113L28.8882 53.8113L28.8882 53.8112L28.8881 53.8112L28.8881 53.8111L28.8881 53.8111L28.8881 53.811L28.8881 53.811L28.888 53.8109L28.888 53.8109L28.888 53.8108L28.888 53.8108L28.888 53.8108L28.8879 53.8107L28.8879 53.8107L28.8879 53.8106L28.8879 53.8106L28.8879 53.8105L28.8878 53.8105L28.8878 53.8104L28.8878 53.8104L28.8878 53.8103L28.8878 53.8103L28.8877 53.8102L28.8877 53.8102L28.8877 53.8101L28.8877 53.8101L28.8877 53.81L28.8876 53.81L28.8876 53.81L28.8876 53.8099L28.8876 53.8099L28.8876 53.8098L28.8875 53.8098L28.8875 53.8097L28.8875 53.8097L28.8875 53.8096L28.8875 53.8096L28.8874 53.8095L28.8874 53.8095L28.8874 53.8094L28.8874 53.8094L28.8874 53.8094L28.8873 53.8093L28.8873 53.8093L28.8873 53.8092L28.8873 53.8092L28.8872 53.8091L28.8872 53.8091L28.8872 53.809L28.8872 53.809L28.8872 53.8089L28.8871 53.8089L28.8871 53.8088L28.8871 53.8088L28.8871 53.8088L28.8871 53.8087L28.887 53.8087L28.887 53.8086L28.887 53.8086L28.887 53.8085L28.887 53.8085L28.887 53.8084L28.8869 53.8084L28.8869 53.8083L28.8869 53.8083L28.8869 53.8083L28.8869 53.8082L28.8868 53.8082L28.8868 53.8081L28.8868 53.8081L28.8868 53.808L28.8868 53.808L28.8867 53.8079L28.8867 53.8079L28.8867 53.8078L28.8867 53.8078L28.8867 53.8078L28.8866 53.8077L28.8866 53.8077L28.8866 53.8076L28.8866 53.8076L28.8866 53.8075L28.8865 53.8075L28.8865 53.8074L28.8865 53.8074L28.8865 53.8073L28.8865 53.8073L28.8864 53.8073L28.8864 53.8072L28.8864 53.8072L28.8864 53.8071L28.8864 53.8071L28.8863 53.807L28.8863 53.807L28.8863 53.8069L28.8863 53.8069L28.8863 53.8069L28.8862 53.8068L28.8862 53.8068L28.8862 53.8067L28.8862 53.8067L28.8862 53.8066L28.8861 53.8066L28.8861 53.8065L28.8861 53.8065L28.8861 53.8065L28.8861 53.8064L28.8861 53.8064L28.886 53.8063L28.886 53.8063L28.886 53.8062L28.886 53.8062L28.886 53.8061L28.8859 53.8061L28.8859 53.8061L28.8859 53.806L28.8859 53.806L28.8859 53.8059L28.8858 53.8059L28.8858 53.8058L28.8858 53.8058L28.8858 53.8058L28.8858 53.8057L28.8858 53.8057L28.8857 53.8056L28.8857 53.8056L28.8857 53.8055L28.8857 53.8055L28.8857 53.8055L28.8856 53.8054L28.8856 53.8054L28.8856 53.8053L28.8856 53.8053L28.8856 53.8052L28.8855 53.8052L28.8855 53.8052L28.8855 53.8051L28.8855 53.8051L28.8855 53.805L28.8855 53.805L28.8854 53.8049L28.8854 53.8049L28.8854 53.8049L28.8854 53.8048L28.8854 53.8048L28.8853 53.8047L28.8853 53.8047L28.8853 53.8046L28.8853 53.8046L28.8853 53.8046L28.8852 53.8045L28.8852 53.8045L28.8852 53.8044L28.8852 53.8044L28.8852 53.8043L28.8852 53.8043L28.8851 53.8043L28.8851 53.8042L28.8851 53.8042L28.8851 53.8041L28.8851 53.8041L28.885 53.8041L28.885 53.804L28.885 53.804L28.885 53.8039L28.885 53.8039L28.885 53.8038L28.8849 53.8038L28.8849 53.8038L28.8849 53.8037L28.8849 53.8037L28.8849 53.8036L28.8849 53.8036L28.8848 53.8036L28.8849 53.8035L28.8808 53.7944C27.6371 50.9905 26.9382 47.9396 26.7951 44.6263L26.7939 44.5978L26.7927 44.5839C26.7581 44.0467 26.4269 43.6459 26.0603 43.4479L26.0439 43.4391L26.0273 43.4307C24.53 42.678 21.8814 41.3438 20.6698 40.7309L20.6668 40.7294C20.0405 40.4147 19.6818 39.7374 19.7736 39.0446L19.78 38.9962L19.7802 38.9926C20.5911 33.0577 22.7537 27.5819 26.2201 22.6956L26.2363 22.6728L26.2377 22.6706Z" fill="white" stroke="white" stroke-width="2.53859"/>
<path fill-rule="evenodd" clip-rule="evenodd" d="M48.7585 17.3418C47.8365 16.8372 47.4976 15.6808 47.9989 14.7574C48.5035 13.8353 49.6622 13.4955 50.5833 13.9978C55.4878 16.6754 59.5718 20.9437 61.9681 26.4624C67.6878 39.6349 61.6368 54.9739 48.4642 60.6936C42.9456 63.0899 37.0474 63.4203 31.6357 62.0284C30.6198 61.7666 30.0052 60.7272 30.266 59.7089C30.5302 58.692 31.5673 58.0784 32.5855 58.3392C37.2032 59.5279 42.2393 59.2452 46.9476 57.2008C58.1921 52.3182 63.3578 39.2235 58.4753 27.979C56.4308 23.2707 52.9441 19.6259 48.7585 17.3418Z" fill="white"/>
<path fill-rule="evenodd" clip-rule="evenodd" d="M45.9958 32.705C46.9598 32.2864 48.0819 32.729 48.5005 33.6931C48.9191 34.6571 48.4764 35.7792 47.5124 36.1978L41.251 38.9166L39.5623 43.1924C39.1786 44.1699 38.0702 44.6511 37.0941 44.2641C36.1165 43.8804 35.6353 42.7721 36.0223 41.7959L37.9985 36.7864C38.1819 36.3165 38.5468 35.9395 39.0102 35.7383L45.9958 32.705Z" fill="white"/>
</g>
</svg>
