<svg width="56" height="68" viewBox="0 0 56 68" fill="none" xmlns="http://www.w3.org/2000/svg">
<g opacity="0.1">
<path d="M27.0778 3.37203L27.0777 3.37208C25.6521 2.67877 24.091 2.30858 22.5058 2.28791C20.9209 2.26724 19.3509 2.59648 17.9079 3.25216C16.4577 3.8935 15.1689 4.85019 14.1352 6.05256C13.1013 7.25513 12.3487 8.67317 11.9322 10.2034L11.9321 10.204L11.8372 10.5579L11.8372 10.5581C11.1546 13.1183 11.424 15.8393 12.5954 18.216L27.0778 3.37203ZM27.0778 3.37203L27.0811 3.37378C29.3252 4.53613 31.0964 6.44107 32.0926 8.76361C33.0887 11.0857 33.2484 13.6814 32.5445 16.1081C31.8553 18.6661 30.2616 20.8874 28.0591 22.3597C28.059 22.3597 28.059 22.3598 28.0589 22.3598L22.7901 25.908C22.7901 25.908 22.7901 25.908 22.7901 25.908C22.1874 26.3139 21.5048 26.5859 20.7881 26.7056C20.0714 26.8253 19.3374 26.7899 18.6355 26.6018C17.9336 26.4138 17.2803 26.0774 16.7194 25.6154C16.1586 25.1534 15.7034 24.5765 15.3844 23.9236C15.3844 23.9236 15.3844 23.9236 15.3844 23.9236L12.5956 18.2164L27.0778 3.37203ZM19.5343 21.9433L19.5404 21.9559L19.544 21.9693C19.5657 22.0485 19.6077 22.1207 19.6659 22.1786C19.7241 22.2366 19.7965 22.2782 19.8758 22.2995C19.9552 22.3208 20.0387 22.3209 20.1181 22.2998C20.1975 22.2787 20.2699 22.2372 20.3283 22.1794L20.3385 22.1693L20.3504 22.1613L25.6116 18.6406C25.6117 18.6405 25.6118 18.6405 25.6119 18.6404C26.9026 17.7652 27.8391 16.4588 28.2535 14.9555L28.2542 14.9533C28.6702 13.5294 28.5845 12.0059 28.0115 10.6376C27.4389 9.27009 26.4142 8.14064 25.1088 7.43798C24.2876 7.03295 23.3868 6.81511 22.4712 6.80015C21.5548 6.78518 20.6465 6.97385 19.8119 7.35255C18.9772 7.73126 18.2371 8.29054 17.6448 8.99004C17.0526 9.68953 16.623 10.5118 16.3872 11.3975L16.3871 11.3977L16.307 11.6966C15.9144 13.2057 16.0723 14.8053 16.7526 16.2085L19.5343 21.9433Z" fill="black" stroke="black" stroke-width="0.3"/>
<path d="M22.9541 10.8137L22.9541 10.8138L22.9268 10.8065C22.3469 10.6511 21.729 10.7324 21.209 11.0326C20.689 11.3328 20.3096 11.8273 20.1542 12.4072C19.9988 12.9872 20.0802 13.6051 20.3804 14.125C20.6806 14.645 21.175 15.0244 21.755 15.1798L22.9541 10.8137ZM22.9541 10.8137L22.956 10.8143M22.9541 10.8137L22.956 10.8143M22.956 10.8143C23.531 10.9764 24.02 11.3568 24.3188 11.8742C24.6175 12.3917 24.7024 13.0053 24.5553 13.5845L24.5554 13.5845M22.956 10.8143L24.5554 13.5845M24.5554 13.5845L24.5543 13.5883M24.5554 13.5845L24.5543 13.5883M24.5543 13.5883C24.3907 14.1683 24.0052 14.6606 23.4812 14.9584M24.5543 13.5883L23.4812 14.9584M23.4812 14.9584C22.9573 15.2563 22.3371 15.3359 21.755 15.1798L23.4812 14.9584Z" fill="black" stroke="black" stroke-width="0.3"/>
<path d="M19.742 39.1318L49.6883 47.1559C50.9134 47.4842 52.2187 47.3123 53.3171 46.6781C54.4155 46.044 55.217 44.9994 55.5453 43.7743C55.8736 42.5492 55.7017 41.2439 55.0676 40.1455C54.4334 39.0471 53.3889 38.2456 52.1637 37.9173L31.7458 32.4463C31.1659 32.2909 30.6714 31.9115 30.3712 31.3916C30.071 30.8716 29.9897 30.2537 30.145 29.6737C30.3004 29.0938 30.6799 28.5993 31.1998 28.2991C31.7198 27.9989 32.3377 27.9176 32.9177 28.073L53.3356 33.5439C55.7206 34.183 57.754 35.7433 58.9886 37.8816C60.2232 40.02 60.5577 42.5612 59.9187 44.9462C59.2796 47.3312 57.7193 49.3646 55.581 50.5992C53.4426 51.8338 50.9014 52.1683 48.5164 51.5292L18.5701 43.5052C17.345 43.1769 16.0397 43.3487 14.9413 43.9829C13.8429 44.6171 13.0414 45.6616 12.7131 46.8867C12.3848 48.1118 12.5567 49.4172 13.1908 50.5156C13.825 51.614 14.8695 52.4155 16.0947 52.7437L33.7902 57.4853C34.3701 57.6407 34.8646 58.0201 35.1648 58.54C35.465 59.06 35.5464 59.6779 35.391 60.2579C35.2356 60.8378 34.8562 61.3323 34.3362 61.6325C33.8162 61.9327 33.1983 62.014 32.6184 61.8586L14.9228 57.1171C12.5378 56.4781 10.5044 54.9177 9.26979 52.7794C8.03522 50.6411 7.70067 48.0999 8.33973 45.7149C8.97879 43.3299 10.5391 41.2964 12.6774 40.0619C14.8158 38.8273 17.357 38.4927 19.742 39.1318Z" fill="black" stroke="black" stroke-width="0.3"/>
</g>
</svg>
