<svg width="68" height="79" viewBox="0 0 68 79" fill="none" xmlns="http://www.w3.org/2000/svg">
<g opacity="0.1">
<path d="M60.6101 76.4191L12.3285 68.3541C8.84673 67.7763 5.80216 65.6844 4.01691 62.6462C2.23471 59.6122 1.89657 55.9436 3.09849 52.641L8.4324 37.9902C9.92659 33.7704 13.6942 30.7689 18.1536 30.2412L18.7151 34.9353L18.7187 34.9359C16.0356 35.2476 13.7692 37.0475 12.8717 39.5852L7.53784 54.2361C6.81203 56.2185 7.01504 58.4234 8.08572 60.2493C9.15639 62.0752 10.9874 63.3317 13.079 63.6811L61.3897 71.7509C63.4813 72.1003 65.6213 71.507 67.2273 70.1283C68.8333 68.7495 69.7418 66.7303 69.7034 64.6202L69.5953 57.6174L69.5916 57.6168C69.5995 57.547 69.6111 57.4778 69.6263 57.4092L69.4946 49.04L69.494 49.0436C69.4411 45.6024 66.9283 42.6896 63.5203 42.1204L39.6687 38.1362L40.4473 33.475L64.2521 37.4514C69.9235 38.3987 74.1085 43.2489 74.1931 48.9752L74.3211 57.1417C74.3139 57.2078 74.3029 57.2734 74.2889 57.3347L74.4466 64.5591C74.5098 68.0732 72.9977 71.4328 70.3262 73.7226C67.6504 76.0156 64.0905 77.0042 60.6101 76.4191Z" fill="white"/>
<path d="M22.5853 66.1672L55.732 36.9416L58.88 40.4844L25.7333 69.71L22.5853 66.1672Z" fill="white"/>
<path d="M71.571 59.7096L41.4373 54.6761L42.205 50.0131L72.3498 55.0485L71.571 59.7096Z" fill="white"/>
<path d="M27.0443 46.1C26.569 46.0206 26.146 45.7627 25.8558 45.3849L16.5759 33.3017C14.3043 30.4068 12.9583 26.8992 12.7098 23.2344C12.4655 19.5664 13.331 15.9155 15.1978 12.7499C16.9422 9.62004 19.5941 7.08718 22.8052 5.48245C26.0163 3.87772 29.639 3.27384 33.2055 3.74981L34.9936 4.04849C38.5131 4.75992 41.7392 6.50783 44.2468 9.06781C46.7584 11.6284 48.4358 14.8844 49.0652 18.407C49.8055 22.0081 49.4374 25.7421 48.0142 29.1315C46.5917 32.5173 44.1751 35.3964 41.0824 37.3952L28.4086 45.7623C28.0156 46.0448 27.5258 46.1654 27.0443 46.1ZM33.466 7.65636L32.7273 7.53298C29.9099 7.16343 27.0441 7.64673 24.5087 8.91884C21.9734 10.191 19.8831 12.1963 18.5036 14.6722C17.0186 17.194 16.3334 20.1041 16.5299 23.0229C16.7301 25.9423 17.8041 28.7382 19.6184 31.04L27.8205 41.6782L38.9931 34.239C41.4571 32.6518 43.3851 30.3574 44.5232 27.6615C45.6577 24.9651 45.9518 21.9897 45.3677 19.1184C44.8708 16.3329 43.5458 13.7571 41.5585 11.7257C39.5742 9.69866 37.0247 8.3108 34.2402 7.74457L33.466 7.65636Z" fill="white"/>
<path d="M29.8991 29.0026C26.7574 28.4591 24.2521 26.0867 23.5479 22.9895C22.8431 19.8959 24.0786 16.6848 26.6777 14.8506C29.2768 13.0164 32.7278 12.9228 35.4262 14.6126C38.1282 16.3029 39.543 19.4439 39.0168 22.5714C38.6689 24.6319 37.5122 26.4712 35.8002 27.675C34.0912 28.8831 31.9668 29.3592 29.8991 29.0026ZM31.8625 17.248C30.2323 16.9944 28.6079 17.7412 27.7497 19.1438C26.8884 20.5421 26.9554 22.3238 27.9241 23.6573C28.8892 24.9901 30.5665 25.6146 32.174 25.2393C33.7809 24.8676 35.0017 23.5668 35.2723 21.9463C35.4518 20.8721 35.1918 19.773 34.5505 18.8873C33.9122 18.0059 32.9436 17.4137 31.8625 17.248Z" fill="white"/>
</g>
</svg>
