<svg width="68" height="79" viewBox="0 0 68 79" fill="none" xmlns="http://www.w3.org/2000/svg">
<g opacity="0.1">
<path d="M60.6103 76.8339L12.3286 68.7689C8.84691 68.1911 5.80234 66.0992 4.0171 63.061C2.2349 60.027 1.89675 56.3584 3.09868 53.0558L8.43259 38.4049C9.92677 34.1852 13.6943 31.1837 18.1538 30.656L18.7153 35.3501L18.7189 35.3507C16.0358 35.6624 13.7694 37.4623 12.8719 40L7.53802 54.6509C6.81222 56.6333 7.01522 58.8382 8.0859 60.6641C9.15657 62.49 10.9876 63.7465 13.0792 64.0959L61.3899 72.1657C63.4814 72.5151 65.6215 71.9218 67.2275 70.5431C68.8334 69.1643 69.742 67.1451 69.7036 65.035L69.5955 58.0322L69.5918 58.0316C69.5997 57.9618 69.6113 57.8926 69.6265 57.824L69.4948 49.4548L69.4941 49.4584C69.4413 46.0172 66.9285 43.1044 63.5205 42.5352L39.6689 38.551L40.4475 33.8898L64.2523 37.8662C69.9236 38.8135 74.1087 43.6637 74.1933 49.39L74.3213 57.5565C74.314 57.6226 74.3031 57.6882 74.2891 57.7495L74.4467 64.9739C74.51 68.488 72.9979 71.8476 70.3264 74.1374C67.6506 76.4304 64.0907 77.419 60.6103 76.8339Z" fill="black"/>
<path d="M22.5853 66.582L55.732 37.3564L58.88 40.8992L25.7333 70.1247L22.5853 66.582Z" fill="black"/>
<path d="M71.5711 60.1243L41.4374 55.0908L42.2051 50.4277L72.35 55.4631L71.5711 60.1243Z" fill="black"/>
<path d="M27.0443 46.5148C26.569 46.4353 26.146 46.1775 25.8558 45.7997L16.5759 33.7165C14.3043 30.8216 12.9583 27.314 12.7098 23.6492C12.4655 19.9812 13.331 16.3302 15.1978 13.1647C16.9422 10.0348 19.5941 7.50198 22.8052 5.89724C26.0163 4.29251 29.639 3.68863 33.2055 4.1646L34.9936 4.46329C38.5131 5.17471 41.7392 6.92262 44.2468 9.4826C46.7584 12.0432 48.4358 15.2992 49.0652 18.8218C49.8055 22.4229 49.4374 26.1569 48.0142 29.5463C46.5917 32.9321 44.1751 35.8112 41.0824 37.81L28.4086 46.1771C28.0156 46.4596 27.5258 46.5802 27.0443 46.5148ZM33.466 8.07115L32.7273 7.94777C29.9099 7.57822 27.0441 8.06152 24.5087 9.33364C21.9734 10.6058 19.8831 12.6111 18.5036 15.087C17.0186 17.6088 16.3334 20.5189 16.5299 23.4377C16.7301 26.3571 17.8041 29.153 19.6184 31.4548L27.8205 42.093L38.9931 34.6538C41.4571 33.0666 43.3851 30.7721 44.5232 28.0763C45.6577 25.3799 45.9518 22.4045 45.3677 19.5332C44.8708 16.7477 43.5458 14.1719 41.5585 12.1405C39.5742 10.1135 37.0247 8.72559 34.2402 8.15937L33.466 8.07115Z" fill="black"/>
<path d="M29.8991 29.4174C26.7574 28.8739 24.2521 26.5015 23.5479 23.4043C22.8431 20.3107 24.0786 17.0996 26.6777 15.2654C29.2768 13.4312 32.7278 13.3376 35.4262 15.0274C38.1282 16.7177 39.543 19.8587 39.0168 22.9862C38.6689 25.0467 37.5122 26.886 35.8002 28.0898C34.0912 29.2979 31.9668 29.774 29.8991 29.4174ZM31.8625 17.6628C30.2323 17.4092 28.6079 18.156 27.7497 19.5586C26.8884 20.9569 26.9554 22.7386 27.9241 24.072C28.8892 25.4049 30.5665 26.0294 32.174 25.6541C33.7809 25.2824 35.0017 23.9816 35.2723 22.3611C35.4518 21.2869 35.1918 20.1878 34.5505 19.3021C33.9122 18.4207 32.9436 17.8285 31.8625 17.6628Z" fill="black"/>
</g>
</svg>
