<svg width="56" height="71" viewBox="0 0 56 71" fill="none" xmlns="http://www.w3.org/2000/svg">
<g opacity="0.1">
<path d="M19.6565 22.2444L19.6565 22.2444C22.9849 11.467 34.4528 5.42621 45.1885 8.67364C55.9239 11.921 62.122 23.3055 58.8559 34.1032C58.6541 34.7703 57.9504 35.2144 57.203 34.9883C56.5268 34.7838 56.1137 34.0129 56.3176 33.3366M19.6565 22.2444L56.5572 33.4079M19.6565 22.2444L19.6561 22.2458C19.4507 22.9249 19.8644 23.6938 20.5407 23.8984C21.2875 24.1243 21.9906 23.6812 22.1931 23.0149M19.6565 22.2444L21.9543 22.9409M56.3176 33.3366C56.3177 33.3362 56.3178 33.3359 56.3179 33.3355L56.5572 33.4079M56.3176 33.3366C56.3175 33.3367 56.3175 33.3369 56.3174 33.3371L56.5572 33.4079M56.3176 33.3366C59.0943 23.9361 53.7422 14.0343 44.4197 11.2143C35.0978 8.39456 25.1535 13.6689 22.1931 23.0149M56.5572 33.4079C59.373 23.8758 53.9466 13.8349 44.4921 10.975C35.0375 8.11513 24.955 13.4648 21.9543 22.9409M22.1931 23.0149C22.1933 23.0144 22.1934 23.0139 22.1936 23.0133L21.9543 22.9409M22.1931 23.0149C22.1929 23.0154 22.1928 23.0159 22.1926 23.0164L21.9543 22.9409" fill="white" stroke="white" stroke-width="0.5"/>
<path d="M23.5161 45.9767L23.5304 45.9836L23.6356 45.937C24.2664 45.6578 24.6865 44.8964 24.3852 44.2097L24.3813 44.2007L24.3767 44.1921C24.3184 44.0833 24.2631 43.9587 24.2036 43.8237L24.1979 43.8107C24.1417 43.6832 24.0814 43.5463 24.0163 43.4229L24.0155 43.4215C23.3098 42.1036 22.3891 40.9433 21.2831 39.9987C23.3145 39.1667 25.0269 37.4865 25.7208 35.1926C26.9157 31.2423 24.6434 26.9991 20.693 25.8042C16.744 24.6096 12.4381 26.8615 11.224 30.875C10.5315 33.1643 10.9667 35.4983 12.2435 37.3322C7.72925 37.8338 3.74001 40.967 2.34397 45.5822L1.4826 48.4298C1.25652 49.1772 1.70059 49.8808 2.36773 50.0826L15.82 54.1518C16.5674 54.3779 17.271 53.9338 17.4728 53.2666C17.6775 52.59 17.2643 51.8185 16.5877 51.6138L4.4661 47.9472L4.94362 46.3685C6.38933 41.5891 11.4797 38.817 16.2524 40.2606C18.5522 40.9563 20.4675 42.501 21.617 44.6514L21.617 44.6516L21.7648 44.9275L21.9046 45.1886C22.0371 45.5378 22.2819 45.7957 22.5917 45.9309C22.8745 46.0543 23.1975 46.0694 23.5161 45.9767ZM13.8425 31.5999L13.8425 31.5999L13.844 31.5945C14.5521 29.0514 17.2474 27.5995 19.8451 28.3853C22.3783 29.1516 23.8259 31.8547 23.0596 34.3879C22.2934 36.9211 19.5902 38.3687 17.057 37.6025C14.5238 36.8362 13.0762 34.1331 13.8425 31.5999Z" fill="white" stroke="white" stroke-width="0.5"/>
<path d="M59.5242 54.1656L59.3764 54.2415L59.5228 54.1631C58.817 52.8451 57.8962 51.6847 56.79 50.74C58.8173 49.9052 60.4748 48.2112 61.151 45.9756C62.346 42.0252 60.0736 37.782 56.1233 36.5871C52.1729 35.3921 47.9297 37.6645 46.7348 41.6148C46.0413 43.9075 46.4788 46.2448 47.7599 48.0799C46.0358 48.3006 44.3352 48.8682 42.8661 49.7973L42.8655 49.7976C42.2526 50.1875 42.084 51.0296 42.4699 51.6327C42.8597 52.2453 43.7012 52.4141 44.3042 52.0287C46.5292 50.6406 49.227 50.2337 51.7611 51.0002C54.0609 51.6959 55.9763 53.2406 57.1257 55.391L57.1258 55.3911C58.2779 57.5426 58.5027 59.9906 57.8071 62.2901L57.3296 63.8688L45.2084 60.2074C45.2084 60.2074 45.2084 60.2074 45.2083 60.2074C44.461 59.9814 43.7574 60.4254 43.5556 61.0925C43.3509 61.7691 43.7641 62.5407 44.4407 62.7454L57.8929 66.8145C58.6403 67.0406 59.344 66.5965 59.5458 65.9294L60.4072 63.0817C61.3069 60.1073 60.9728 56.9653 59.5242 54.1656ZM55.3551 39.1275C57.8883 39.8938 59.3359 42.597 58.5696 45.1302C57.8034 47.6634 55.1002 49.111 52.567 48.3447C50.0338 47.5784 48.5862 44.8753 49.3525 42.3421C50.1188 39.8088 52.8196 38.3606 55.3551 39.1275Z" fill="white" stroke="white" stroke-width="0.5"/>
<path d="M30.5352 40.4864L30.5352 40.4864L30.5368 40.4808C31.2426 37.937 33.9993 36.504 36.5378 37.2718C39.071 38.0381 40.5186 40.7413 39.7523 43.2745C38.9861 45.8077 36.2829 47.2553 33.7497 46.489C31.2165 45.7227 29.7689 43.0196 30.5352 40.4864ZM27.9357 39.6998C27.2426 41.9911 27.6791 44.327 28.9584 46.1616C24.4277 46.7107 20.4506 49.7865 19.0532 54.4062L18.1732 57.3154C17.9471 58.0628 18.3912 58.7665 19.0584 58.9683L38.994 64.9986C39.7414 65.2246 40.445 64.7806 40.6468 64.1134L41.5263 61.2059C42.9879 56.6004 41.381 51.8337 37.9131 48.867C39.945 48.0352 41.6579 46.3548 42.3519 44.0605C43.5469 40.1102 41.2745 35.867 37.3242 34.6721C33.3738 33.4771 29.1306 35.7495 27.9357 39.6998ZM21.1593 56.8339L21.6368 55.2552C23.0819 50.478 28.1521 47.7648 32.9269 49.2091C37.7063 50.6548 40.4353 55.6649 38.9908 60.4404L38.4955 62.0778L21.1593 56.8339Z" fill="white" stroke="white" stroke-width="0.5"/>
<path d="M34.2918 15.1405L34.2918 15.1405L34.2907 15.1413C33.2486 15.9153 32.5884 17.141 32.3446 18.458C32.1007 19.7756 32.2691 21.2066 32.911 22.4073L32.911 22.4075L37.4764 30.9325C37.6353 31.2291 37.9554 31.4846 38.2595 31.5766C38.5636 31.6686 38.9717 31.6334 39.2682 31.4745L47.9504 26.825C49.4394 26.0277 50.4083 24.6579 50.7403 23.0963C51.0939 21.4701 50.6889 19.8274 49.7139 18.4993C48.2342 16.4173 45.0275 15.8128 42.6615 16.9568L42.6108 16.8874C41.8123 15.4071 40.4467 14.4438 38.8905 14.1129C37.2635 13.7592 35.6202 14.1646 34.2918 15.1405ZM39.1431 28.4328L35.2457 21.155C34.9174 20.542 34.8264 19.7619 34.952 19.0368C35.0781 18.309 35.415 17.6757 35.8964 17.3285L35.8964 17.3285L35.8982 17.3272C36.6102 16.8036 37.4686 16.5805 38.3129 16.7721L38.5461 16.8426C39.2753 17.0632 39.9108 17.5615 40.2381 18.2599L40.2377 18.2601L40.2441 18.2719L40.8781 19.4558C41.0369 19.7524 41.357 20.0079 41.6611 20.0999C42.0343 20.2128 42.3805 20.1528 42.6699 19.9978C42.6699 19.9978 42.6699 19.9978 42.6699 19.9978L43.6966 19.448C44.3096 19.1197 45.0896 19.0287 45.8148 19.1543C46.5426 19.2804 47.1759 19.6173 47.5231 20.0987L47.523 20.0987L47.5244 20.1005C48.0496 20.8147 48.2725 21.6764 48.0776 22.5233L48.0752 22.5339L48.0737 22.5446C47.9709 23.2775 47.3928 24.0149 46.6584 24.4082L39.1431 28.4328Z" fill="white" stroke="white" stroke-width="0.5"/>
</g>
</svg>
