<svg width="57" height="68" viewBox="0 0 57 68" fill="none" xmlns="http://www.w3.org/2000/svg">
<path opacity="0.1" d="M64.6508 21.7815L64.6519 21.7841C68.0651 29.8947 68.0093 38.9228 64.6509 47.0343C61.2932 55.1445 54.9765 61.5103 46.8005 64.8965L46.8003 64.8965C38.6245 68.2863 29.721 68.2806 21.5476 64.8966C13.3742 61.5126 7.07187 55.2227 3.68546 47.0461L3.68539 47.0459C0.295647 38.8701 0.301365 29.9667 3.68534 21.7933C7.0699 13.6184 13.3857 7.2562 21.5334 3.93212L21.536 3.93104C29.7118 0.541299 38.6152 0.547019 46.7887 3.93099C54.9621 7.31496 61.2644 13.6049 64.6508 21.7815ZM48.8128 56.2643L49.0581 56.8229L49.5577 56.4727C57.0709 51.2061 61.4069 42.5691 61.0618 33.2899L61.0617 33.2883C60.6894 24.0715 55.7184 15.8425 47.7518 11.1751L47.2567 10.885L47.0371 11.4152L38.4227 32.215L38.3411 32.4121L38.4268 32.6073L48.8128 56.2643ZM26.9753 59.6891L26.7576 60.2151L27.3072 60.3632C32.581 61.784 37.9977 61.587 43.1062 59.741L43.6098 59.559L43.3937 59.069L35.53 41.2371L35.058 40.1668L34.6105 41.2476L26.9753 59.6891ZM29.0251 38.9351L29.474 37.8508L28.3811 38.2782L10.2787 45.3565L9.7764 45.5529L10.0102 46.0389C12.3419 50.8868 16.005 54.9174 20.679 57.6159L21.1728 57.901L21.391 57.3741L29.0251 38.9351ZM41.3874 9.07615L41.6067 8.54645L41.0521 8.4012C32.0572 6.04557 22.7202 8.35025 15.9779 14.6997C9.19999 20.9535 6.0966 30.105 7.7526 39.1675L7.86156 39.7637L8.42622 39.5434L32.4952 30.1515L32.6938 30.074L32.7754 29.877L41.3874 9.07615Z" fill="white" stroke="white"/>
</svg>
