<svg width="56" height="68" viewBox="0 0 56 68" fill="none" xmlns="http://www.w3.org/2000/svg">
<g opacity="0.1">
<path d="M27.0778 3.95724L27.0777 3.95728C25.6521 3.26398 24.091 2.89379 22.5058 2.87311C20.9209 2.85244 19.3509 3.18168 17.9079 3.83736C16.4577 4.4787 15.1689 5.4354 14.1352 6.63777C13.1013 7.84034 12.3487 9.25838 11.9322 10.7886L11.9321 10.7892L11.8372 11.1431L11.8372 11.1433C11.1546 13.7035 11.424 16.4245 12.5954 18.8012L27.0778 3.95724ZM27.0778 3.95724L27.0811 3.95898C29.3252 5.12134 31.0964 7.02627 32.0926 9.34882C33.0887 11.6709 33.2484 14.2666 32.5445 16.6933C31.8553 19.2513 30.2616 21.4726 28.0591 22.9449C28.059 22.9449 28.059 22.945 28.0589 22.945L22.7901 26.4932C22.7901 26.4932 22.7901 26.4932 22.7901 26.4932C22.1874 26.8991 21.5048 27.1711 20.7881 27.2908C20.0714 27.4105 19.3374 27.3751 18.6355 27.187C17.9336 26.999 17.2803 26.6626 16.7194 26.2006C16.1586 25.7386 15.7034 25.1617 15.3844 24.5088C15.3844 24.5088 15.3844 24.5088 15.3844 24.5088L12.5956 18.8016L27.0778 3.95724ZM19.5343 22.5285L19.5404 22.5411L19.544 22.5545C19.5657 22.6337 19.6077 22.7059 19.6659 22.7638C19.7241 22.8218 19.7965 22.8634 19.8758 22.8847C19.9552 22.906 20.0387 22.9061 20.1181 22.885C20.1975 22.8639 20.2699 22.8224 20.3283 22.7646L20.3385 22.7545L20.3504 22.7465L25.6116 19.2258C25.6117 19.2257 25.6118 19.2257 25.6119 19.2256C26.9026 18.3504 27.8391 17.044 28.2535 15.5407L28.2542 15.5385C28.6702 14.1146 28.5845 12.5911 28.0115 11.2228C27.4389 9.8553 26.4142 8.72585 25.1088 8.02318C24.2876 7.61816 23.3868 7.40031 22.4712 7.38535C21.5548 7.37038 20.6465 7.55906 19.8119 7.93776C18.9772 8.31646 18.2371 8.87575 17.6448 9.57524C17.0526 10.2747 16.623 11.097 16.3872 11.9827L16.3871 11.9829L16.307 12.2818C15.9144 13.7909 16.0723 15.3905 16.7526 16.7937L19.5343 22.5285Z" fill="white" stroke="white" stroke-width="0.3"/>
<path d="M22.9541 11.3989L22.9541 11.399L22.9268 11.3917C22.3469 11.2363 21.729 11.3176 21.209 11.6178C20.689 11.918 20.3096 12.4125 20.1542 12.9924C19.9988 13.5724 20.0802 14.1903 20.3804 14.7103C20.6806 15.2302 21.175 15.6096 21.755 15.765L22.9541 11.3989ZM22.9541 11.3989L22.956 11.3995M22.9541 11.3989L22.956 11.3995M22.956 11.3995C23.531 11.5617 24.02 11.942 24.3188 12.4594C24.6175 12.9769 24.7024 13.5905 24.5553 14.1697L24.5554 14.1697M22.956 11.3995L24.5554 14.1697M24.5554 14.1697L24.5543 14.1735M24.5554 14.1697L24.5543 14.1735M24.5543 14.1735C24.3907 14.7535 24.0052 15.2458 23.4812 15.5436M24.5543 14.1735L23.4812 15.5436M23.4812 15.5436C22.9573 15.8415 22.3371 15.9211 21.755 15.765L23.4812 15.5436Z" fill="white" stroke="white" stroke-width="0.3"/>
<path d="M19.7421 39.7171L49.6884 47.7412C50.9135 48.0695 52.2188 47.8976 53.3173 47.2635C54.4157 46.6293 55.2172 45.5848 55.5454 44.3597C55.8737 43.1345 55.7018 41.8292 55.0677 40.7308C54.4335 39.6324 53.389 38.8309 52.1639 38.5026L31.7459 33.0317C31.166 32.8763 30.6715 32.4968 30.3713 31.9769C30.0711 31.4569 29.9898 30.839 30.1452 30.259C30.3006 29.6791 30.68 29.1846 31.1999 28.8844C31.7199 28.5842 32.3378 28.5029 32.9178 28.6583L53.3357 34.1293C55.7207 34.7683 57.7542 36.3286 58.9887 38.467C60.2233 40.6053 60.5578 43.1465 59.9188 45.5315C59.2797 47.9165 57.7194 49.9499 55.5811 51.1845C53.4427 52.4191 50.9016 52.7536 48.5166 52.1146L18.5703 44.0905C17.3451 43.7622 16.0398 43.9341 14.9414 44.5682C13.843 45.2024 13.0415 46.2469 12.7132 47.472C12.385 48.6972 12.5568 50.0025 13.191 51.1009C13.8251 52.1993 14.8697 53.0008 16.0948 53.3291L33.7903 58.0706C34.3703 58.226 34.8647 58.6054 35.1649 59.1254C35.4651 59.6453 35.5465 60.2632 35.3911 60.8432C35.2357 61.4231 34.8563 61.9176 34.3363 62.2178C33.8163 62.518 33.1984 62.5993 32.6185 62.444L14.9229 57.7024C12.5379 57.0634 10.5045 55.5031 9.26991 53.3647C8.03535 51.2264 7.7008 48.6852 8.33986 46.3002C8.97891 43.9152 10.5392 41.8817 12.6776 40.6472C14.8159 39.4126 17.3571 39.0781 19.7421 39.7171Z" fill="white" stroke="white" stroke-width="0.3"/>
</g>
</svg>
