<svg width="59" height="73" viewBox="0 0 59 73" fill="none" xmlns="http://www.w3.org/2000/svg">
<g opacity="0.1">
<path fill-rule="evenodd" clip-rule="evenodd" d="M27.9265 25.1016C25.0238 29.3538 23.1609 34.076 22.3798 39.1671C23.7257 39.8447 25.8795 40.9298 27.1713 41.5784C28.4484 42.2249 29.2748 43.51 29.3299 44.9308C29.4597 47.8939 30.0785 50.6446 31.2002 53.177C31.6308 54.1302 31.6629 55.2178 31.2906 56.1959C30.9133 57.1817 30.1554 57.973 29.1983 58.3885C27.1426 59.295 23.9223 60.6933 21.936 61.5558C20.0196 62.3879 17.7884 61.5772 16.8525 59.7086L15.8897 57.7909C15.8732 57.7593 15.8601 57.729 15.8459 57.6964C7.39115 38.2251 16.334 15.5557 35.8053 7.10092C35.8379 7.08677 35.8681 7.07362 35.9017 7.0618L37.9146 6.31788C39.8741 5.59154 42.0579 6.52249 42.89 8.43888L46.0709 15.7645C46.928 17.7447 46.0317 20.0464 44.0758 20.915C41.4914 22.0953 39.1054 23.7264 36.893 25.7443C35.8774 26.6751 34.4497 27.0072 33.1312 26.6222C31.7499 26.2201 29.3906 25.5286 27.9265 25.1016ZM18.5156 39.2869C19.3487 33.1298 21.59 27.4435 25.1849 22.376L25.1898 22.3683C25.913 21.3568 27.1966 20.9157 28.3863 21.2654C29.7035 21.6538 32.6012 22.5017 34.1974 22.9654C34.2388 22.9779 34.2848 22.969 34.316 22.9388L34.322 22.9335C36.8427 20.6378 39.5586 18.7915 42.4949 17.4528C42.5019 17.4498 42.5066 17.4478 42.5112 17.4458C42.5754 17.4151 42.6044 17.3417 42.5771 17.2788L39.3972 9.95552C39.3709 9.89498 39.2998 9.86498 39.2372 9.88661C39.2372 9.88661 37.2753 10.614 37.2614 10.62C19.7765 18.251 11.7458 38.6231 19.3185 56.1332L20.2554 58.0041C20.2864 58.0626 20.3588 58.0893 20.4194 58.063C22.401 57.2025 25.612 55.8082 27.6631 54.9038L27.6724 54.8998C27.7003 54.8876 27.7232 54.8639 27.7338 54.8371C27.7456 54.8071 27.7428 54.7751 27.7307 54.7471C27.7276 54.7402 27.7236 54.7308 27.7205 54.7239C26.4081 51.7651 25.6765 48.5569 25.527 45.0959L25.5263 45.0879C25.5254 45.0412 25.4969 45.001 25.4571 44.9795C23.9595 44.2267 21.3098 42.8919 20.0969 42.2784C18.9889 41.7216 18.3522 40.523 18.5153 39.2925L18.5156 39.2869Z" fill="black"/>
<path fill-rule="evenodd" clip-rule="evenodd" d="M48.7587 17.7566C47.8366 17.252 47.4977 16.0956 47.999 15.1722C48.5036 14.2501 49.6624 13.9103 50.5834 14.4126C55.4879 17.0902 59.5719 21.3585 61.9682 26.8771C67.688 40.0497 61.6369 55.3887 48.4643 61.1084C42.9457 63.5047 37.0475 63.8351 31.6359 62.4432C30.6199 62.1814 30.0053 61.1419 30.2662 60.1237C30.5303 59.1068 31.5674 58.4932 32.5857 58.754C37.2034 59.9427 42.2394 59.66 46.9477 57.6156C58.1922 52.733 63.358 39.6383 58.4754 28.3938C56.431 23.6855 52.9442 20.0407 48.7587 17.7566Z" fill="black"/>
<path fill-rule="evenodd" clip-rule="evenodd" d="M45.9958 33.1199C46.9598 32.7013 48.0819 33.144 48.5005 34.108C48.9191 35.072 48.4764 36.1941 47.5124 36.6127L41.251 39.3315L39.5623 43.6073C39.1786 44.5848 38.0702 45.0661 37.0941 44.679C36.1165 44.2954 35.6353 43.187 36.0223 42.2108L37.9985 37.2013C38.1819 36.7315 38.5468 36.3544 39.0102 36.1532L45.9958 33.1199Z" fill="black"/>
</g>
</svg>
