<svg width="56" height="71" viewBox="0 0 56 71" fill="none" xmlns="http://www.w3.org/2000/svg">
<g opacity="0.1">
<path d="M19.6565 22.6592L19.6565 22.6592C22.9849 11.8818 34.4528 5.84101 45.1885 9.08843C55.9239 12.3358 62.122 23.7203 58.8559 34.518C58.6541 35.1851 57.9504 35.6292 57.203 35.4031C56.5268 35.1986 56.1137 34.4277 56.3176 33.7514M19.6565 22.6592L56.5572 33.8227M19.6565 22.6592L19.6561 22.6605C19.4507 23.3397 19.8644 24.1086 20.5407 24.3132C21.2875 24.5391 21.9906 24.096 22.1931 23.4297M19.6565 22.6592L21.9543 23.3557M56.3176 33.7514C56.3177 33.751 56.3178 33.7507 56.3179 33.7503L56.5572 33.8227M56.3176 33.7514C56.3175 33.7515 56.3175 33.7517 56.3174 33.7519L56.5572 33.8227M56.3176 33.7514C59.0943 24.3509 53.7422 14.449 44.4197 11.6291C35.0978 8.80936 25.1535 14.0837 22.1931 23.4297M56.5572 33.8227C59.373 24.2906 53.9466 14.2497 44.4921 11.3898C35.0375 8.52993 24.955 13.8796 21.9543 23.3557M22.1931 23.4297C22.1933 23.4292 22.1934 23.4286 22.1936 23.4281L21.9543 23.3557M22.1931 23.4297C22.1929 23.4302 22.1928 23.4307 22.1926 23.4312L21.9543 23.3557" fill="black" stroke="black" stroke-width="0.5"/>
<path d="M23.5163 46.3915L23.5306 46.3983L23.6357 46.3518C24.2665 46.0726 24.6867 45.3112 24.3853 44.6245L24.3814 44.6155L24.3768 44.6069C24.3185 44.4981 24.2632 44.3735 24.2037 44.2385L24.198 44.2255C24.1418 44.098 24.0815 43.9611 24.0164 43.8377L24.0156 43.8363C23.3099 42.5184 22.3893 41.3581 21.2832 40.4134C23.3146 39.5814 25.027 37.9013 25.7209 35.6074C26.9158 31.6571 24.6435 27.4139 20.6931 26.219C16.7442 25.0244 12.4382 27.2763 11.2242 31.2898C10.5317 33.5791 10.9669 35.913 12.2437 37.747C7.72937 38.2486 3.74013 41.3818 2.3441 45.997L1.48272 48.8446C1.25664 49.592 1.70072 50.2956 2.36785 50.4974L15.8201 54.5666C16.5675 54.7926 17.2711 54.3486 17.4729 53.6814C17.6776 53.0048 17.2644 52.2333 16.5878 52.0286L4.46622 48.362L4.94375 46.7833C6.38945 42.0039 11.4799 39.2318 16.2525 40.6754C18.5523 41.3711 20.4677 42.9158 21.6171 45.0662L21.6172 45.0664L21.7649 45.3423L21.9047 45.6034C22.0372 45.9526 22.282 46.2105 22.5918 46.3457C22.8746 46.4691 23.1976 46.4842 23.5163 46.3915ZM13.8426 32.0147L13.8426 32.0147L13.8441 32.0093C14.5522 29.4662 17.2475 28.0143 19.8452 28.8001C22.3784 29.5664 23.826 32.2695 23.0597 34.8027C22.2935 37.3359 19.5903 38.7835 17.0571 38.0173C14.5239 37.251 13.0763 34.5479 13.8426 32.0147Z" fill="black" stroke="black" stroke-width="0.5"/>
<path d="M59.5242 54.5804L59.3764 54.6563L59.5228 54.5779C58.817 53.2599 57.8962 52.0995 56.79 51.1548C58.8173 50.32 60.4748 48.626 61.151 46.3903C62.346 42.44 60.0736 38.1968 56.1233 37.0019C52.1729 35.8069 47.9297 38.0793 46.7348 42.0296C46.0413 44.3223 46.4788 46.6596 47.7599 48.4947C46.0358 48.7154 44.3352 49.283 42.8661 50.2121L42.8655 50.2124C42.2526 50.6023 42.084 51.4444 42.4699 52.0475C42.8597 52.6601 43.7012 52.8289 44.3042 52.4435C46.5292 51.0554 49.227 50.6485 51.7611 51.415C54.0609 52.1107 55.9763 53.6554 57.1257 55.8058L57.1258 55.8059C58.2779 57.9574 58.5027 60.4054 57.8071 62.7049L57.3296 64.2836L45.2084 60.6222C45.2084 60.6222 45.2084 60.6222 45.2083 60.6222C44.461 60.3962 43.7574 60.8402 43.5556 61.5073C43.3509 62.1839 43.7641 62.9555 44.4407 63.1602L57.8929 67.2293C58.6403 67.4554 59.344 67.0113 59.5458 66.3442L60.4072 63.4965C61.3069 60.5221 60.9728 57.3801 59.5242 54.5804ZM55.3551 39.5423C57.8883 40.3086 59.3359 43.0117 58.5696 45.545C57.8034 48.0782 55.1002 49.5258 52.567 48.7595C50.0338 47.9932 48.5862 45.2901 49.3525 42.7569C50.1188 40.2236 52.8196 38.7754 55.3551 39.5423Z" fill="black" stroke="black" stroke-width="0.5"/>
<path d="M30.5352 40.901L30.5352 40.9011L30.5368 40.8955C31.2426 38.3517 33.9993 36.9187 36.5378 37.6865C39.071 38.4528 40.5186 41.1559 39.7523 43.6891C38.9861 46.2223 36.2829 47.6699 33.7497 46.9037C31.2165 46.1374 29.7689 43.4343 30.5352 40.901ZM27.9357 40.1145C27.2426 42.4057 27.6791 44.7416 28.9584 46.5762C24.4277 47.1254 20.4506 50.2011 19.0532 54.8209L18.1732 57.7301C17.9471 58.4775 18.3912 59.1811 19.0584 59.3829L38.994 65.4132C39.7414 65.6393 40.445 65.1952 40.6468 64.5281L41.5263 61.6206C42.9879 57.0151 41.381 52.2483 37.9131 49.2817C39.945 48.4498 41.6579 46.7695 42.3519 44.4752C43.5469 40.5249 41.2745 36.2817 37.3242 35.0867C33.3738 33.8918 29.1306 36.1641 27.9357 40.1145ZM21.1593 57.2485L21.6368 55.6699C23.0819 50.8926 28.1521 48.1795 32.9269 49.6238C37.7063 51.0695 40.4353 56.0796 38.9908 60.8551L38.4955 62.4925L21.1593 57.2485Z" fill="black" stroke="black" stroke-width="0.5"/>
<path d="M34.2915 15.5553L34.2915 15.5553L34.2905 15.5561C33.2484 16.33 32.5882 17.5558 32.3444 18.8728C32.1005 20.1904 32.2689 21.6214 32.9107 22.8221L32.9108 22.8222L37.4762 31.3473C37.635 31.6439 37.9551 31.8994 38.2592 31.9914C38.5633 32.0834 38.9714 32.0482 39.268 31.8893L47.9501 27.2398C49.4391 26.4425 50.4081 25.0727 50.74 23.5111C51.0936 21.8848 50.6886 20.2422 49.7137 18.9141C48.2339 16.8321 45.0273 16.2276 42.6613 17.3716L42.6106 17.3021C41.812 15.8219 40.4464 14.8586 38.8902 14.5277C37.2633 14.174 35.62 14.5794 34.2915 15.5553ZM39.1429 28.8476L35.2454 21.5698C34.9172 20.9568 34.8261 20.1767 34.9518 19.4515C35.0779 18.7238 35.4147 18.0905 35.8961 17.7433L35.8961 17.7433L35.898 17.7419C36.6099 17.2184 37.4684 16.9953 38.3127 17.1869L38.5458 17.2574C39.2751 17.478 39.9105 17.9762 40.2378 18.6747L40.2375 18.6749L40.2438 18.6867L40.8778 19.8706C41.0367 20.1672 41.3568 20.4227 41.6609 20.5147C42.034 20.6276 42.3803 20.5676 42.6696 20.4126C42.6696 20.4126 42.6696 20.4126 42.6697 20.4126L43.6963 19.8628C44.3094 19.5345 45.0894 19.4435 45.8146 19.5691C46.5423 19.6952 47.1756 20.032 47.5228 20.5135L47.5228 20.5135L47.5242 20.5153C48.0494 21.2295 48.2722 22.0912 48.0774 22.9381L48.075 22.9486L48.0735 22.9594C47.9707 23.6923 47.3926 24.4297 46.6581 24.823L39.1429 28.8476Z" fill="black" stroke="black" stroke-width="0.5"/>
</g>
</svg>
