<svg width="25" height="24" viewBox="0 0 25 24" fill="none" xmlns="http://www.w3.org/2000/svg">
<g id="ph:phone-bold">
<path id="Vector" d="M3.49999 14.5126L7.91468 12.5335L7.93156 12.526C8.21851 12.4023 8.53191 12.3525 8.84308 12.3812C9.15425 12.4098 9.45327 12.516 9.71281 12.6901C9.7492 12.7144 9.78425 12.7407 9.81781 12.7688L11.9094 14.5501C13.1281 13.8891 14.3872 12.6404 15.0491 11.4366L13.2622 9.31226C13.2335 9.27794 13.2069 9.24194 13.1825 9.20445C13.013 8.94585 12.9101 8.64934 12.883 8.34134C12.8558 8.03334 12.9052 7.72341 13.0269 7.43914C13.0298 7.4337 13.0323 7.42806 13.0344 7.42226L15.0125 3.00008C15.1749 2.63025 15.452 2.32253 15.8028 2.12245C16.1537 1.92237 16.5597 1.84057 16.9606 1.88914C18.3215 2.06791 19.5708 2.73596 20.4752 3.7685C21.3795 4.80105 21.8771 6.12748 21.875 7.50008C21.875 15.151 15.6509 21.3751 7.99999 21.3751C6.6274 21.3772 5.30096 20.8796 4.26842 19.9753C3.23587 19.0709 2.56783 17.8216 2.38906 16.4607C2.34048 16.0597 2.42229 15.6538 2.62237 15.3029C2.82245 14.9521 3.13017 14.6749 3.49999 14.5126ZM7.99999 19.1251C11.082 19.1214 14.0367 17.8954 16.216 15.7161C18.3953 13.5368 19.6213 10.5821 19.625 7.50008C19.6271 6.72335 19.3634 5.96928 18.8777 5.36316C18.392 4.75703 17.7135 4.33536 16.955 4.1682L15.1906 8.1057L16.9869 10.2451C17.0159 10.2797 17.0428 10.316 17.0675 10.3538C17.2445 10.6243 17.3486 10.936 17.3697 11.2587C17.3907 11.5813 17.3279 11.9039 17.1875 12.1951C16.3044 14.0026 14.4847 15.8101 12.6584 16.6951C12.3653 16.8341 12.0411 16.8946 11.7175 16.8708C11.394 16.8469 11.0821 16.7396 10.8125 16.5591C10.7763 16.5346 10.7415 16.508 10.7084 16.4795L8.60562 14.6916L4.66812 16.4551C4.83528 17.2136 5.25695 17.8921 5.86307 18.3778C6.46919 18.8635 7.22327 19.1272 7.99999 19.1251Z" fill="white"/>
</g>
</svg>
