<svg width="32" height="32" viewBox="0 0 32 32" fill="none" xmlns="http://www.w3.org/2000/svg">
<g id="tabler:sun-moon">
<g id="Group">
<path id="Vector" d="M12.2306 19.7733C11.7353 19.278 11.3425 18.69 11.0744 18.043C10.8064 17.3959 10.6685 16.7023 10.6685 16.0019C10.6685 15.3015 10.8064 14.608 11.0744 13.9609C11.3425 13.3138 11.7353 12.7259 12.2306 12.2306C12.7259 11.7353 13.3138 11.3425 13.9609 11.0744C14.608 10.8064 15.3015 10.6685 16.0019 10.6685C16.7023 10.6685 17.3959 10.8064 18.043 11.0744C18.69 11.3425 19.278 11.7353 19.7733 12.2306" stroke="white" stroke-width="3" stroke-linecap="round" stroke-linejoin="round"/>
<path id="Vector_2" d="M15.0587 16.9427L15.2907 17.272C16.6096 19.0553 18.4839 20.3495 20.6189 20.951C22.7538 21.5525 25.0281 21.4272 27.084 20.5947C26.3274 22.4153 25.1338 24.0215 23.6088 25.2712C22.0838 26.5209 20.2744 27.3755 18.3406 27.7596C16.4068 28.1437 14.4081 28.0454 12.5213 27.4734C10.6345 26.9014 8.91766 25.8733 7.52267 24.48M4 16H5.33333M16 4V5.33333M7.46667 7.46667L8.4 8.4M4 28L28 4" stroke="white" stroke-width="3" stroke-linecap="round" stroke-linejoin="round"/>
</g>
</g>
</svg>
