<svg width="31" height="35" viewBox="0 0 31 35" fill="none" xmlns="http://www.w3.org/2000/svg">
<path fill-rule="evenodd" clip-rule="evenodd" d="M7.12376 29.7527H1.75844C1.26228 29.7527 0.858398 30.1531 0.858398 30.6469V30.73C0.858398 32.6765 2.43925 34.2539 4.38926 34.2539C8.92392 34.2539 17.5892 34.2539 22.1239 34.2539C24.0739 34.2539 25.6547 32.6765 25.6547 30.73V30.6469C25.6547 30.1531 25.2509 29.7527 24.7547 29.7527H19.3894C21.0625 28.8688 22.4586 27.5234 23.4048 25.8873H24.2702C25.8279 25.8873 27.328 25.2688 28.4242 24.168C29.5319 23.0672 30.1434 21.5741 30.1434 20.0176V19.8445C30.1434 18.9918 29.8087 18.1737 29.1972 17.5703C28.5972 16.9668 27.778 16.6287 26.9241 16.6287H24.7316V15.0145C24.7316 14.6949 24.4662 14.4375 24.1547 14.4375H2.35847C2.04693 14.4375 1.78154 14.6949 1.78154 15.0145V20.9003C1.78154 24.7403 3.95065 28.075 7.12376 29.7527ZM24.4893 30.9065H2.0238C2.11611 32.1331 3.13156 33.1 4.38926 33.1C8.92392 33.1 17.5892 33.1 22.1239 33.1C23.3816 33.1 24.397 32.1331 24.4893 30.9065ZM14.7278 29.7527H11.7969C6.90458 29.7527 2.93539 25.7892 2.93539 20.9003V15.5914H23.5777V20.9003C23.5777 25.7892 19.6086 29.7527 14.7278 29.7527ZM8.52016 23.1341L12.8471 27.4611C13.0779 27.6861 13.4355 27.6861 13.6663 27.4611C13.6663 27.4611 16.1586 24.9676 17.9933 23.1341C19.274 21.8557 19.274 19.7822 17.9933 18.5037C16.7125 17.2253 14.6355 17.2241 13.3547 18.5026L13.2623 18.6053L13.1587 18.5026C11.8779 17.2241 9.80094 17.2241 8.52016 18.5026C7.23938 19.7811 7.23938 21.8557 8.52016 23.1341ZM13.2623 26.2369L9.33935 22.3184C8.50857 21.4911 8.50857 20.148 9.33935 19.3195C10.1701 18.4922 11.5084 18.491 12.3392 19.3184L12.8471 19.8284C13.0779 20.0545 13.4355 20.0545 13.6663 19.8284L14.1739 19.3184C15.0047 18.491 16.3433 18.491 17.1741 19.3184C18.0049 20.1468 18.0049 21.4911 17.1741 22.3184L13.2623 26.2369ZM24.7316 17.7826V20.9003C24.7316 22.2584 24.4548 23.553 23.9702 24.7334H24.2702C25.5279 24.7334 26.7278 24.2361 27.6047 23.3522C28.4932 22.4672 28.9895 21.2684 28.9895 20.0176V19.8445C28.9895 19.2976 28.7703 18.7726 28.3895 18.386C27.9972 17.9995 27.4779 17.7826 26.9241 17.7826H24.7316ZM8.64692 0.902825C8.64692 0.902825 7.03164 2.07745 7.03164 4.15554C7.03164 5.18824 7.44704 5.86901 7.90858 6.5244C8.26627 7.01594 8.65856 7.48441 8.75087 8.1998C8.9701 9.78174 7.57392 10.8341 7.57392 10.8341C7.32007 11.0279 7.27381 11.3902 7.46997 11.6429C7.65459 11.8956 8.02376 11.9452 8.27761 11.7514C8.27761 11.7514 10.2047 10.2606 9.89318 8.04057C9.76625 7.11633 9.30454 6.4921 8.85454 5.85633C8.51992 5.38325 8.18549 4.90209 8.18549 4.15554C8.18549 2.67515 9.3278 1.83514 9.3278 1.83514C9.58165 1.64706 9.63918 1.2859 9.45457 1.02859C9.26995 0.771278 8.90077 0.715901 8.64692 0.902825ZM18.2009 0.902825C18.2009 0.902825 16.5856 2.07745 16.5856 4.15554C16.5856 5.18824 17.001 5.86901 17.4625 6.5244C17.8087 7.01594 18.201 7.48441 18.3048 8.1998C18.5241 9.78174 17.1279 10.8341 17.1279 10.8341C16.874 11.0279 16.8278 11.3902 17.0124 11.6429C17.2085 11.8956 17.5662 11.9452 17.82 11.7514C17.82 11.7514 19.7587 10.2606 19.4471 8.04057C19.3202 7.11633 18.8585 6.4921 18.4085 5.85633C18.0623 5.38325 17.7395 4.90209 17.7395 4.15554C17.7395 2.67515 18.8818 1.83514 18.8818 1.83514C19.1356 1.64706 19.1931 1.2859 19.0085 1.02859C18.8124 0.771278 18.4547 0.715901 18.2009 0.902825ZM13.424 0.902825C13.424 0.902825 11.8085 2.07745 11.8085 4.15554C11.8085 5.18824 12.2239 5.86901 12.6854 6.5244C13.0316 7.01594 13.4354 7.48441 13.5277 8.1998C13.7469 9.78174 12.3508 10.8341 12.3508 10.8341C12.0969 11.0279 12.0509 11.3902 12.2355 11.6429C12.4317 11.8956 12.8009 11.9452 13.0432 11.7514C13.0432 11.7514 14.9816 10.2606 14.67 8.04057C14.5431 7.11633 14.0817 6.4921 13.6317 5.85633C13.2855 5.38325 12.9623 4.90209 12.9623 4.15554C12.9623 2.67515 14.1046 1.83514 14.1046 1.83514C14.3585 1.64706 14.4163 1.2859 14.2317 1.02859C14.0355 0.771278 13.6779 0.715901 13.424 0.902825Z" fill="white"/>
</svg>
