<svg width="23" height="22" viewBox="0 0 23 22" fill="none" xmlns="http://www.w3.org/2000/svg">
<g id="Whatsapp">
<path id="Vector" d="M11.0453 2.27381C13.2295 2.27464 15.2821 3.12213 16.8259 4.66039C18.3697 6.19863 19.2191 8.24274 19.2183 10.4171C19.2164 14.9035 15.5489 18.5543 11.0421 18.5543H11.0387C11.0387 18.5543 11.0387 18.5543 11.0387 18.5543C9.57141 18.5538 8.13239 18.1614 6.87722 17.4201L6.57499 17.2415L6.53915 17.2204L6.49887 17.2309L3.53413 18.0049L4.32429 15.1323L4.336 15.0898L4.31242 15.0524L4.11561 14.7408L4.1156 14.7408C3.29728 13.4453 2.86503 11.948 2.86568 10.4105C2.86747 5.92445 6.53496 2.27381 11.0453 2.27381ZM11.0453 2.27381L11.0454 2.17381M11.0453 2.27381L11.0454 2.17381M11.0454 2.17381C13.2559 2.17465 15.3339 3.03259 16.8965 4.58955C18.4591 6.14652 19.3191 8.21611 19.3183 10.4171C19.3164 14.9591 15.6037 18.6543 11.0421 18.6543H11.0387C9.55364 18.6538 8.09704 18.2567 6.82637 17.5062L11.0454 2.17381ZM15.6263 12.3956L15.6264 12.3956C15.6715 12.4181 15.7155 12.4393 15.7572 12.4594C15.8253 12.4921 15.8873 12.522 15.9381 12.5498C16.0204 12.5947 16.0984 12.6467 16.1443 12.7228M15.6263 12.3956L16.0586 12.7744M15.6263 12.3956C15.5015 12.3334 15.133 12.1525 14.7672 11.9767C14.4046 11.8024 14.0358 11.629 13.9157 11.5855C13.8047 11.5452 13.6846 11.5048 13.5671 11.5181C13.4386 11.5328 13.3325 11.6077 13.2387 11.7478L13.2387 11.7478M15.6263 12.3956L13.2387 11.7478M16.1443 12.7228L16.0586 12.7744M16.1443 12.7228C16.1443 12.7228 16.1443 12.7228 16.1443 12.7228L16.0586 12.7744M16.1443 12.7228C16.1729 12.7703 16.1854 12.8415 16.191 12.9128C16.197 12.9895 16.1962 13.0849 16.1867 13.1936C16.1679 13.4112 16.1142 13.6882 16.0076 13.9857C15.8923 14.3074 15.5678 14.5992 15.2291 14.8152C14.8879 15.0329 14.5065 15.19 14.2488 15.2283L14.2341 15.1294M16.0586 12.7744C16.1208 12.8777 16.1208 13.3735 15.9135 13.9519C15.7061 14.5304 14.7121 15.0583 14.2341 15.1294M14.2341 15.1294L14.2488 15.2283C13.8118 15.2933 13.2527 15.3214 12.6368 15.1267C12.2741 15.012 11.8071 14.8585 11.2091 14.6015C8.84657 13.5862 7.25348 11.3088 6.96037 10.8898C6.94017 10.8609 6.92614 10.8409 6.91846 10.8307L6.91638 10.8279C6.84971 10.7394 6.5945 10.4004 6.35468 9.93026C6.11299 9.45647 5.88245 8.84095 5.88245 8.20893C5.88245 7.0283 6.4689 6.40566 6.73103 6.12734C6.74881 6.10846 6.7651 6.09117 6.77961 6.07539M14.2341 15.1294L6.77961 6.07539M13.2387 11.7478C13.0773 11.9892 12.6052 12.5418 12.4589 12.7084L12.4589 12.7084M13.2387 11.7478L12.4589 12.7084M12.4589 12.7084C12.3959 12.7801 12.3441 12.8082 12.2914 12.8145C12.2346 12.8214 12.1574 12.8055 12.0396 12.7468L11.995 12.8363M12.4589 12.7084L11.995 12.8363M11.995 12.8363L12.0396 12.7468C11.9965 12.7254 11.939 12.7005 11.8686 12.6701C11.5161 12.5177 10.842 12.2262 10.0606 11.5325C9.33285 10.8865 8.83983 10.0863 8.69637 9.84132C8.63582 9.73787 8.63987 9.67381 8.65719 9.62745C8.6781 9.57146 8.72461 9.52187 8.78958 9.45748L8.7896 9.45747L11.995 12.8363ZM6.77961 6.07539L6.77962 6.07539C7.02988 5.80339 7.32804 5.73322 7.51669 5.73322C7.6828 5.73322 7.8509 5.73476 7.99848 5.74207C7.99848 5.74207 7.99848 5.74207 7.99848 5.74207L7.99353 5.84194L6.77961 6.07539ZM11.042 0.4H11.042C5.49876 0.4 0.986686 4.88987 0.984468 10.4098C0.983734 12.16 1.43954 13.8689 2.3061 15.3782L0.904558 20.4735L0.85861 20.6405L1.02624 20.5968L6.26673 19.2286C7.72706 20.0139 9.36811 20.4275 11.0379 20.4282H11.038H11.0421C16.5847 20.4282 21.0972 15.9377 21.0994 10.4178C21.1005 7.74304 20.0551 5.22757 18.1563 3.3356C16.2576 1.44363 13.732 0.401063 11.042 0.4Z" fill="white" stroke="white" stroke-width="0.2"/>
</g>
</svg>
